<svg width="168" height="37" viewBox="0 0 168 37" fill="none" xmlns="http://www.w3.org/2000/svg">
<path d="M97.1942 11.02C98.6917 4.99044 95.0369 0.00402832 86.0598 0.00402832L66.6238 0.0316896L59.3418 29.4997L63.5656 36.7501H77.3948C86.4628 36.7501 93.4722 32.5224 95.2858 25.1771C96.1906 21.4156 95.1436 18.7722 92.7729 17.4604V17.3695C95.1436 15.872 96.5541 13.5606 97.1903 11.02H97.1942ZM85.2893 24.94C84.9258 26.481 83.8827 28.0575 79.5759 28.0575H70.7489L72.2898 21.7356H81.0694C85.3762 21.7356 85.6923 23.3556 85.2853 24.94H85.2893ZM87.1029 11.2215C86.7868 12.3989 85.878 13.8332 82.16 13.8332H74.2417L75.5575 8.69666H83.4757C87.2372 8.69666 87.419 9.90572 87.1029 11.2215Z" fill="#14A0FF"/>
<path d="M109.437 22.5258H127.13L129.153 13.8332H111.567L112.93 8.69666H130.347L132.37 0.00402832H103.783L94.7148 36.7501H127.087L129.221 28.0575H108.121L109.437 22.5258Z" fill="#14A0FF"/>
<path d="M134.834 0.00402832L132.811 8.69666H143.384L136.442 36.7501H147.552L154.503 8.69666H165.823L168 0.00402832H134.834Z" fill="#14A0FF"/>
<path d="M11.6086 36.7503H0.414871L5.26299 17.1839L6.38908 14.2205L3.42172 17.1089L0.130396 20.4516L0 10.6605L11.6165 0.00415039H20.6647L11.6086 36.7503Z" fill="white"/>
<path d="M52.0367 21.5183L48.4609 15.477L65.779 0.00012207H49.6462L43.024 6.32598L43.0003 6.28647L20.7195 26.7932L10.0039 36.7423H25.2674L36.7377 26.5087L40.5901 33.0637C41.8466 34.7153 43.759 36.7383 51.6337 36.7383H60.8992L52.0367 21.5025L52.0249 21.5104L52.0367 21.5183Z" fill="white"/>
<path d="M41.819 4.29527L41.7677 4.20834C39.1638 0.431001 35.1415 0.00822281 33.079 0.0161252C32.4547 -0.00363078 32.0596 0.000323073 32.0596 0.000323073H21.1543L30.0445 15.1255L41.8151 4.29132L41.819 4.29527Z" fill="white"/>
</svg>
