<svg width="93" height="56" viewBox="0 0 93 56" fill="none" xmlns="http://www.w3.org/2000/svg">
<path d="M46.5 0.5C59.2664 0.5 70.7999 3.57551 79.125 8.52148C87.4608 13.4738 92.5 20.2444 92.5 27.626C92.4999 35.0075 87.4608 41.7781 79.125 46.7305C70.7999 51.6764 59.2664 54.752 46.5 54.752C33.7336 54.752 22.2001 51.6764 13.875 46.7305C5.53921 41.7781 0.500058 35.0075 0.5 27.626C0.5 20.2444 5.53918 13.4738 13.875 8.52148C22.2001 3.57551 33.7336 0.5 46.5 0.5Z" fill="url(#paint0_linear_517_124)" fill-opacity="0.9" stroke="white"/>
<path d="M15.7882 37.6522C14.4935 37.6522 13.3392 37.407 12.3254 36.9167C11.3177 36.4264 10.5177 35.7506 9.92525 34.8894C9.33285 34.0281 9.02443 33.0412 9 31.9285H12.8476C12.8903 32.6766 13.1957 33.2832 13.7637 33.7484C14.3317 34.2136 15.0065 34.4462 15.7882 34.4462C16.4112 34.4462 16.9608 34.3047 17.4372 34.0218C17.9197 33.7327 18.2953 33.3335 18.564 32.8243C18.8388 32.3088 18.9762 31.7179 18.9762 31.0515C18.9762 30.3726 18.8358 29.7754 18.5548 29.2599C18.28 28.7445 17.8983 28.3421 17.4097 28.053C16.9211 27.7638 16.3623 27.6161 15.7333 27.6098C15.1836 27.6098 14.6492 27.7261 14.1301 27.9587C13.6171 28.1913 13.2171 28.5087 12.93 28.911L9.40308 28.2604L10.2917 18.0765H21.7612V21.4146H13.5621L13.0766 26.2519H13.1865C13.5163 25.7742 14.0141 25.3781 14.6798 25.0638C15.3455 24.7495 16.0905 24.5923 16.915 24.5923C18.0449 24.5923 19.0526 24.8658 19.9381 25.4127C20.8237 25.9596 21.523 26.7108 22.036 27.6663C22.549 28.6156 22.8024 29.7094 22.7963 30.9478C22.8024 32.2491 22.5093 33.4058 21.9169 34.4179C21.3306 35.4237 20.5092 36.2158 19.4526 36.7941C18.4022 37.3662 17.1807 37.6522 15.7882 37.6522Z" fill="white"/>
<path d="M32.9192 37.8125C31.3435 37.8062 29.9877 37.407 28.8517 36.615C27.7219 35.8229 26.8516 34.6756 26.2408 33.1732C25.6362 31.6707 25.337 29.8634 25.3431 27.7512C25.3431 25.6453 25.6454 23.8505 26.25 22.367C26.8607 20.8834 27.731 19.755 28.8609 18.9818C29.9968 18.2023 31.3496 17.8125 32.9192 17.8125C34.4887 17.8125 35.8384 18.2023 36.9683 18.9818C38.1042 19.7613 38.9776 20.8928 39.5883 22.3764C40.199 23.8537 40.5013 25.6453 40.4952 27.7512C40.4952 29.8697 40.1899 31.6802 39.5791 33.1826C38.9745 34.685 38.1073 35.8323 36.9774 36.6244C35.8476 37.4165 34.4948 37.8125 32.9192 37.8125ZM32.9192 34.4273C33.994 34.4273 34.8521 33.871 35.4934 32.7583C36.1346 31.6456 36.4522 29.9766 36.4461 27.7512C36.4461 26.2865 36.2995 25.0669 36.0064 24.0926C35.7193 23.1182 35.3102 22.3858 34.7788 21.8955C34.2536 21.4051 33.6337 21.16 32.9192 21.16C31.8504 21.16 30.9954 21.71 30.3541 22.8101C29.7128 23.9103 29.3891 25.5573 29.383 27.7512C29.383 29.2348 29.5266 30.4732 29.8136 31.4664C30.1067 32.4534 30.519 33.1952 31.0503 33.6918C31.5817 34.1821 32.2046 34.4273 32.9192 34.4273Z" fill="white"/>
<path d="M46.358 35.1439C45.7533 35.1439 45.2342 34.9239 44.8006 34.4839C44.3731 34.0438 44.1593 33.5095 44.1593 32.8809C44.1593 32.2648 44.3731 31.7368 44.8006 31.2967C45.2342 30.8567 45.7533 30.6366 46.358 30.6366C46.9443 30.6366 47.4573 30.8567 47.897 31.2967C48.3367 31.7368 48.5566 32.2648 48.5566 32.8809C48.5566 33.2958 48.4528 33.6761 48.2451 34.0218C48.0436 34.3613 47.7779 34.6348 47.4481 34.8422C47.1183 35.0434 46.7549 35.1439 46.358 35.1439ZM46.358 25.6673C45.7533 25.6673 45.2342 25.4473 44.8006 25.0072C44.3731 24.5672 44.1593 24.0328 44.1593 23.4042C44.1593 22.7881 44.3731 22.2632 44.8006 21.8295C45.2342 21.3894 45.7533 21.1694 46.358 21.1694C46.9443 21.1694 47.4573 21.3894 47.897 21.8295C48.3367 22.2632 48.5566 22.7881 48.5566 23.4042C48.5566 23.8254 48.4528 24.2089 48.2451 24.5546C48.0436 24.8941 47.7779 25.1644 47.4481 25.3655C47.1183 25.5667 46.7549 25.6673 46.358 25.6673Z" fill="white"/>
<path d="M59.2929 37.6522C57.9982 37.6522 56.8439 37.407 55.8301 36.9167C54.8224 36.4264 54.0223 35.7506 53.4299 34.8894C52.8375 34.0281 52.5291 33.0412 52.5047 31.9285H56.3523C56.395 32.6766 56.7004 33.2832 57.2684 33.7484C57.8363 34.2136 58.5112 34.4462 59.2929 34.4462C59.9159 34.4462 60.4655 34.3047 60.9419 34.0218C61.4244 33.7327 61.8 33.3335 62.0687 32.8243C62.3435 32.3088 62.4809 31.7179 62.4809 31.0515C62.4809 30.3726 62.3405 29.7754 62.0595 29.2599C61.7847 28.7445 61.403 28.3421 60.9144 28.053C60.4258 27.7638 59.867 27.6161 59.238 27.6098C58.6883 27.6098 58.1539 27.7261 57.6348 27.9587C57.1218 28.1913 56.7218 28.5087 56.4347 28.911L52.9078 28.2604L53.7964 18.0765H65.2658V21.4146H57.0668L56.5813 26.2519H56.6912C57.021 25.7742 57.5188 25.3781 58.1844 25.0638C58.8501 24.7495 59.5952 24.5923 60.4197 24.5923C61.5496 24.5923 62.5573 24.8658 63.4428 25.4127C64.3284 25.9596 65.0277 26.7108 65.5407 27.6663C66.0537 28.6156 66.3071 29.7094 66.301 30.9478C66.3071 32.2491 66.014 33.4058 65.4216 34.4179C64.8353 35.4237 64.0138 36.2158 62.9573 36.7941C61.9068 37.3662 60.6854 37.6522 59.2929 37.6522Z" fill="white"/>
<path d="M76.4238 37.8125C74.8482 37.8062 73.4923 37.407 72.3564 36.615C71.2265 35.8229 70.3563 34.6756 69.7455 33.1732C69.1409 31.6707 68.8416 29.8634 68.8478 27.7512C68.8478 25.6453 69.1501 23.8505 69.7547 22.367C70.3654 20.8834 71.2357 19.755 72.3656 18.9818C73.5015 18.2023 74.8543 17.8125 76.4238 17.8125C77.9934 17.8125 79.3431 18.2023 80.473 18.9818C81.6089 19.7613 82.4823 20.8928 83.093 22.3764C83.7037 23.8537 84.006 25.6453 83.9999 27.7512C83.9999 29.8697 83.6945 31.6802 83.0838 33.1826C82.4792 34.685 81.612 35.8323 80.4821 36.6244C79.3523 37.4165 77.9995 37.8125 76.4238 37.8125ZM76.4238 34.4273C77.4987 34.4273 78.3568 33.871 78.998 32.7583C79.6393 31.6456 79.9569 29.9766 79.9508 27.7512C79.9508 26.2865 79.8042 25.0669 79.5111 24.0926C79.224 23.1182 78.8148 22.3858 78.2835 21.8955C77.7583 21.4051 77.1384 21.16 76.4238 21.16C75.3551 21.16 74.5 21.71 73.8588 22.8101C73.2175 23.9103 72.8938 25.5573 72.8877 27.7512C72.8877 29.2348 73.0312 30.4732 73.3183 31.4664C73.6114 32.4534 74.0237 33.1952 74.555 33.6918C75.0863 34.1821 75.7093 34.4273 76.4238 34.4273Z" fill="white"/>
<defs>
<linearGradient id="paint0_linear_517_124" x1="46.5" y1="0" x2="46.5" y2="55.2517" gradientUnits="userSpaceOnUse">
<stop stop-color="#301663"/>
<stop offset="1" stop-color="#1B073A"/>
</linearGradient>
</defs>
</svg>
