<svg width="316" height="51" viewBox="0 0 316 51" fill="none" xmlns="http://www.w3.org/2000/svg">
<path d="M60.0469 0.5H255.953C262.403 0.50007 268.705 2.42416 274.056 6.02539C285.816 13.9408 298.595 20.2253 312.043 24.708L314.418 25.5L312.043 26.292C298.595 30.7747 285.816 37.0592 274.056 44.9746C268.705 48.5758 262.403 50.4999 255.953 50.5H60.0469C53.5974 50.4999 47.2947 48.5758 41.9443 44.9746C30.1843 37.0592 17.4053 30.7747 3.95703 26.292L1.58105 25.5L3.95703 24.708C17.4053 20.2253 30.1843 13.9408 41.9443 6.02539C47.2947 2.42416 53.5974 0.50007 60.0469 0.5Z" fill="#48C61A" stroke="white"/>
</svg>
