<svg width="287" height="45" viewBox="0 0 287 45" fill="none" xmlns="http://www.w3.org/2000/svg">
<path d="M60.3994 0.5H226.601C233.335 0.500078 239.957 2.22196 245.839 5.50195L247.197 6.25977C257.574 12.047 268.47 16.851 279.742 20.6084L285.417 22.5L279.742 24.3916C268.47 28.149 257.574 32.953 247.197 38.7402L245.839 39.498C239.957 42.778 233.335 44.4999 226.601 44.5H60.3994C53.6651 44.4999 47.0427 42.778 41.1611 39.498L39.8027 38.7402C29.4257 32.953 18.5298 28.149 7.25781 24.3916L1.58203 22.5L7.25781 20.6084C18.5298 16.851 29.4257 12.047 39.8027 6.25977L41.1611 5.50195C47.0427 2.22196 53.6651 0.500077 60.3994 0.5Z" fill="url(#paint0_linear_362_28143)" stroke="white"/>
<defs>
<linearGradient id="paint0_linear_362_28143" x1="351" y1="-3" x2="351" y2="48" gradientUnits="userSpaceOnUse">
<stop stop-color="#301663"/>
<stop offset="1" stop-color="#1B073A"/>
</linearGradient>
</defs>
</svg>
