<svg width="93" height="56" viewBox="0 0 93 56" fill="none" xmlns="http://www.w3.org/2000/svg">
<path d="M46.5 0.5C59.2664 0.5 70.7999 3.57551 79.125 8.52148C87.4608 13.4738 92.5 20.2444 92.5 27.626C92.4999 35.0075 87.4608 41.7781 79.125 46.7305C70.7999 51.6764 59.2664 54.752 46.5 54.752C33.7336 54.752 22.2001 51.6764 13.875 46.7305C5.53921 41.7781 0.500058 35.0075 0.5 27.626C0.5 20.2444 5.53918 13.4738 13.875 8.52148C22.2001 3.57551 33.7336 0.5 46.5 0.5Z" fill="url(#paint0_linear_517_121)" fill-opacity="0.9" stroke="white"/>
<path d="M67.7253 4.99702C63.7171 3.4006 61.4356 1.63621 56.8829 1.82667C56.4182 1.84519 55.9705 2.13881 55.8017 2.1441L52.0161 13.4103C52.0606 15.209 55.6957 17.5303 56.3999 19.0526L46.0366 36.5047C45.3874 37.6461 44.4972 36.7269 43.704 36.4015C42.4448 35.8844 41.1004 36.2442 40.4315 36.5497C39.76 36.8579 38.0753 38.8603 36.714 40.3655L36.7048 40.376C36.0844 41.0625 35.532 41.6444 35.1759 41.9116L35.172 41.9143L35.1419 41.9434C35.0333 41.1657 34.3722 40.5639 33.5724 40.5639H31.1285V37.625C31.1285 36.7415 30.4164 36.0219 29.542 36.0219H25.3925V32.7828C25.3925 31.8993 24.6805 31.1798 23.806 31.1798H21.0519V28.6972C21.0519 27.8137 20.3398 27.0942 19.4654 27.0942H15.9364V21.7446C15.9364 20.8611 15.2243 20.1416 14.3499 20.1416H10.0944V11.3125L8 12.7755V20.6548C8 21.5383 8.71209 22.2578 9.5865 22.2578H13.842V27.6087C13.842 28.4922 14.5541 29.2117 15.4285 29.2117H18.9576V31.6943C18.9576 32.5778 19.6696 33.2973 20.544 33.2973H23.2982V36.5364C23.2982 37.42 24.0103 38.1395 24.8847 38.1395H29.0342V41.0784C29.0342 41.9619 29.7462 42.6814 30.6206 42.6814H33.1378V44.787C33.1261 44.9232 33.1261 45.0608 33.1378 45.197V45.2261H33.1405C33.185 45.7049 33.3669 46.1745 33.6928 46.5699C35.3291 48.5512 36.9601 50.5391 38.5427 52.5575C39.5453 53.4145 40.7601 54.2041 41.3701 54.5494C41.5756 54.6657 41.9696 54.7491 42.2065 54.7874C43.2406 54.9567 44.9868 54.2399 45.7591 53.5084C46.5432 52.7651 48.0145 50.6053 48.8837 49.5313C51.9179 45.7856 55.9365 41.0122 58.4419 36.9954C62.5351 30.4378 68.741 18.8383 68.995 11.1896C69.0709 8.90142 68.2672 7.12248 67.724 4.99834L67.7253 4.99702ZM47.144 43.6496C46.5681 44.4894 41.6175 50.551 41.1672 50.6304C40.8792 50.6807 37.2193 47.2259 36.7703 46.7379C36.0988 46.0052 34.905 44.6799 35.2165 43.672C35.4246 42.9975 40.082 38.3088 40.8347 37.908C42.9854 36.7639 44.1163 37.9318 45.7644 39.3947C47.5511 40.9805 48.6232 41.4937 47.144 43.6496ZM61.8335 21.7137L52.3041 39.351C50.2463 41.1881 47.309 40.8482 46.1152 38.1884L57.5269 19.2642C58.2115 19.3859 61.9173 19.1015 62.077 19.2642C62.1922 19.3819 62.1018 21.3156 61.8335 21.7137ZM61.4081 17.9548C61.2052 18.0884 57.7364 18.0606 57.2808 17.9284C56.2363 17.6242 53.24 14.6641 53.2753 13.4182C53.3067 12.3469 56.1433 4.13202 56.7533 3.5818C57.1146 3.25511 57.5885 3.07127 58.0819 3.14798C58.4301 3.20353 64.3481 5.69669 64.5366 5.99692C65.2055 7.07487 61.6921 16.1045 61.4081 17.9548Z" fill="white"/>
<defs>
<linearGradient id="paint0_linear_517_121" x1="46.5" y1="0" x2="46.5" y2="55.2517" gradientUnits="userSpaceOnUse">
<stop stop-color="#301663"/>
<stop offset="1" stop-color="#1B073A"/>
</linearGradient>
</defs>
</svg>
