<svg width="682" height="909" viewBox="0 0 682 909" fill="none" xmlns="http://www.w3.org/2000/svg">
<path d="M27.0085 908.165L28.7107 905.713L33.2048 900.538L36.8817 896.793L40.8992 893.321L43.4866 891.754L45.8699 890.597L49.2063 889.78L54.5856 889.099L56.9007 888.486L59.4201 887.397L63.3694 884.945L69.2934 881.132L71.8809 879.838L73.9236 879.157L76.443 878.545L82.0266 878.136L91.0147 878.136L95.1002 878.545L97.8238 879.294L102.59 881.064L110.217 884.264L117.026 887.465L120.975 889.031L123.562 889.78L128.806 890.461L133.776 891.278L135.751 891.686L138.815 892.776L145.692 895.363L150.663 897.338L154.953 898.972L157.745 899.721L159.447 899.994L161.353 900.062L163.6 899.653L165.984 898.836L167.822 897.678L168.707 896.18L169.252 894.274L169.797 888.963L170.75 871.599L171.703 859.751L172.589 851.24L174.359 841.23L176.606 830.676L180.079 818.42L182.666 811.474L184.232 808.683L186.411 805.55L190.156 801.192L194.31 797.379L199.485 792.749L206.907 786.212L214.669 779.675L225.155 770.96L232.305 765.104L239.931 759.316L247.898 753.801L255.252 749.034L261.04 745.289L267.576 741.204L276.496 736.165L282.965 732.624L289.842 729.015L297.128 725.543L305.367 722.138L313.13 719.278L320.007 717.235L324.229 716.01L332.332 714.171L340.707 712.741L353.304 710.63L366.037 708.452L374.391 706.975L385.558 704.342L397.632 701.89L408.889 699.711L418.694 698.622L429.678 697.895L439.756 697.895L450.288 698.712L460.821 700.708L470.716 702.525L475.164 703.342L481.246 703.797L490.778 703.614L495.498 702.797L499.584 701.163L502.218 699.346L504.034 696.985L504.669 693.627L504.307 689.903L503.307 686L500.946 681.188L498.495 677.464L495.044 673.379L490.776 669.748L485.691 667.114L479.426 665.208L471.345 663.574L460.36 662.122L450.738 660.215L441.75 658.126L434.851 656.13L427.314 653.134L420.595 649.865L414.058 646.415L408.338 642.601L402.619 637.789L398.078 632.976L392.993 626.439L389.363 621.264L384.55 613.093L380.374 604.922L375.744 595.117L371.114 585.674L368.573 581.226L366.211 578.593L364.122 576.868L361.943 576.234L359.31 576.596L356.496 578.32L352.683 581.316L346.236 587.036L338.065 592.845L329.894 597.748L322.358 601.744L312.915 606.919L306.105 610.642L300.024 614.093L295.393 617.361L290.218 621.629L284.499 627.077L280.868 631.524L278.054 636.517L274.151 645.232L269.794 654.31L265.833 660.757L260.898 668.111L255.541 674.286L250.728 678.916L245.553 683.091L240.106 686.088L236.02 687.632C236.02 687.632 232.117 688.266 231.845 688.359C231.572 688.449 226.125 688.814 226.125 688.814L211.689 689.086L188.266 689.176L170.107 689.903L161.481 690.631L154.582 691.448L147.956 692.899C147.956 692.899 141.509 694.806 141.236 694.806C140.964 694.806 134.61 697.44 134.61 697.44L127.166 700.708L120.719 703.432L112.458 706.245L105.377 708.607L95.299 711.693L86.6731 714.689L77.3228 717.685L68.6969 720.408C68.6969 720.408 55.1684 724.856 54.8961 724.856C54.6237 724.856 43.4567 728.759 43.4567 728.759L32.562 732.3L26.0252 734.841L19.9432 737.475C19.9432 737.475 15.4029 740.381 15.1305 740.381C14.8582 740.381 10.0454 743.56 10.0454 743.56L5.4152 746.193L0.240227 747.918" stroke="#14A0FF" stroke-width="0.584008" stroke-miterlimit="10"/>
<path d="M0.25 879.747L3.79077 879.747L10.0552 879.202L14.0508 878.022L19.953 875.116L26.9447 870.486L35.5705 864.584L43.7415 859.499L50.006 855.958L54.0016 854.324L58.4493 852.78L64.9862 851.508L70.4335 850.873L76.6979 850.873L83.1449 851.962L90.861 854.324L100.211 857.682L107.383 860.133L112.196 861.313L116.463 861.858L121.276 861.675L123.545 860.858L127.72 857.59L134.075 850.87L140.429 844.788L143.335 840.613L145.969 835.166L149.872 825.178L154.32 814.918L156.044 811.649L158.857 808.381L167.391 800.3L176.834 790.857L185.367 782.324L190.632 777.693L197.986 771.974L210.425 763.62L217.779 758.083L225.86 750.367L230.4 744.647L233.034 739.834L234.033 735.839L234.033 732.57L233.399 727.668L232.037 724.944L229.586 722.31L225.045 718.407L220.598 715.956L216.874 714.956L211.609 714.139C211.609 714.139 200.352 713.322 199.988 713.322C199.623 713.322 195.63 712.143 195.63 712.143L191.454 710.146L184.19 705.699L177.926 702.43L172.933 700.706L169.03 699.799L164.31 699.072L160.952 699.072L155.415 699.799L149.785 702.161L140.797 705.974L134.35 708.697L130.537 710.514L127.541 712.603L123.728 716.416L117.553 722.681L113.557 726.494L108.565 729.49L103.39 730.762L99.4869 731.124L91.3159 731.486L88.5023 731.941L83.1448 733.121L77.515 735.027L72.5225 737.661L68.2545 739.84L60.3559 743.563L56.7253 745.287L53.9117 747.466L52.3674 749.01L50.7332 751.462L48.0994 756.092L45.6481 759.905L42.9244 763.174L39.4735 765.535C39.4735 765.535 36.3876 766.987 36.1153 766.987C35.8429 766.987 31.7574 767.986 31.7574 767.986L26.7649 768.349L15.0531 769.166L9.87816 770.073L5.52029 771.979L2.34177 773.796L0.252719 775.158" stroke="#14A0FF" stroke-width="0.584008" stroke-miterlimit="10"/>
<path d="M2.15469 840.481L5.42309 848.244L8.96386 852.874L11.8237 855.189L13.4906 855.565L15.1929 855.565L17.5407 854.952L18.9352 854.102L22.5795 850.63L27.8906 844.638L32.7251 839.395L35.585 836.875L38.581 834.969L46.4116 831.36L55.9444 827.002L59.8937 825.3L62.5493 824.346L65.4092 823.87L72.2864 823.461L82.0235 823.87L87.9475 824.551L90.535 825.3L94.1439 826.866L99.5231 830.27L105.856 834.696L110.963 837.76L114.027 839.19L116.274 839.514L120.223 839.514L123.832 838.714L126.215 837.624L128.258 836.058L130.301 833.198L132.616 829.385L135.407 823.461L138.199 815.971L140.174 810.387L141.876 806.915L143.374 804.532L146.438 800.718L151.613 795.135L160.329 786.692L168.228 780.359L175.309 774.775L184.978 767.149L194.103 759.863L200.912 753.19L204.316 748.901L206.087 745.7L206.631 742.704L206.631 740.866L205.95 738.483L203.499 736.167L199.277 733.648L188.451 728.337L179.599 724.388L172.313 721.46L167.819 720.302L164.278 719.485L159.444 719.485L154.133 720.098L151 721.323L147.392 723.434L143.442 726.703L137.654 732.967L133.229 736.644L129.688 739.027L125.33 741.002L119.814 742.772L116.41 743.385L110.826 744.611L105.788 746.041L102.451 747.471L98.7741 749.786L93.8715 752.646L88.2199 755.369L83.5897 757.548L79.4361 759.319L75.0101 761.293L70.7884 764.017L66.4305 767.49L62.9579 770.622L59.8256 774.367L57.102 777.227L53.9017 779.746L50.2247 781.04L45.8668 782.266L40.6238 783.287C40.6238 783.287 34.087 784.172 33.8827 784.24C33.6784 784.308 29.0482 785.057 29.0482 785.057L25.916 785.943L22.5795 787.849L19.5154 790.164L16.5874 793.433L13.5914 798.267L10.2549 806.506L6.7822 813.86L3.85426 820.193L2.15197 824.074L1.40296 829.113L1.0625 834.015L1.47105 837.828L2.15197 840.484L2.15469 840.481Z" stroke="#14A0FF" stroke-width="0.584008" stroke-miterlimit="10"/>
<path d="M63.7102 807.841L68.3404 806.117L72.7882 805.118L76.4188 804.3L81.9588 803.756L86.8614 804.3L91.4916 805.798L95.7569 807.841L102.476 813.561L109.468 819.646L113.643 823.549L115.46 824.456L117.639 824.456L119.635 823.459L122.176 820.008L124.993 814.106L127.896 806.662L130.712 799.398L132.891 794.86L136.884 788.958L142.242 783.056L151.23 775.067L159.583 769.075L172.112 760.177L174.291 758.27L175.108 756.274L175.108 754.005L174.471 752.099L172.385 750.282L167.389 747.376L160.853 743.655L157.494 742.745L153.499 742.745L148.051 743.745L143.786 745.924L135.07 751.461L122.359 760.542L114.188 765.624L107.651 769.165L97.9358 773.343L87.5859 777.336L72.6983 782.966L62.7106 786.962L57.0808 789.865L51.8159 793.588L48.73 796.857L47.8203 799.218L47.8203 803.211L49.8195 806.934L52.2708 809.296L54.7221 810.113L58.8076 809.84L61.6211 808.751L63.7102 807.841Z" stroke="#14A0FF" stroke-width="0.584008" stroke-miterlimit="10"/>
<path d="M306.116 709.337L317.691 702.664L330.629 694.629L335.804 691.769L340.706 689.863L344.519 688.773L359.499 688.773L380.608 688.773L403.078 687.275L417.514 685.232L432.358 682.1L439.984 679.513L443.252 678.151L444.614 676.517L444.614 675.019L443.661 672.976L440.937 671.342L432.221 667.256L415.471 660.719L405.802 656.089L396.677 650.506L391.366 646.693L386.736 642.062L383.468 636.751L380.063 630.895L376.659 625.993L371.756 620.818L366.853 616.46L362.904 614.281L360.18 613.191L354.461 613.191L349.967 614.281L342.885 617.141L333.625 621.635L323.956 627.082L317.146 631.849L311.835 636.887L306.116 644.241L301.621 652.004L296.991 659.085L292.497 664.941L285.688 673.112L280.377 681.283L277.517 688.637L274.385 696.944L274.385 702.8L275.747 707.567L278.879 710.835L283.781 714.103L287.458 714.92L294.404 714.239L299.306 712.605L306.116 709.337Z" stroke="#14A0FF" stroke-width="0.584008" stroke-miterlimit="10"/>
<path d="M314.696 693.676L322.05 688.773L330.221 683.054L336.758 678.151L343.022 673.385L345.882 671.614L349.695 670.661L354.189 669.844L356.913 667.393L358.683 664.056L359.5 661.128L359.5 657.179L358.547 654.183L355.278 650.642L351.329 648.872L345.473 648.872L335.94 650.233L328.723 652.821L322.186 655.681L313.198 661.401L306.661 667.12L300.397 673.929L293.86 681.556L288.957 689.046L287.187 692.859L286.506 695.038L287.323 697.898L287.868 698.611L289.23 699.396L291.477 699.837L298.218 699.837L302.303 699.123L307.478 697.489L312.04 695.378L314.696 693.676Z" stroke="#14A0FF" stroke-width="0.584008" stroke-miterlimit="10"/>
<path d="M199.144 908.165L197.646 900.811L195.944 893.252L194.514 887.941L192.811 881.609L191.586 875.208L190.701 869.829L190.292 865.471L190.292 854.917L190.769 845.929L191.858 838.098L193.629 831.561L195.331 825.978L196.965 820.735L199.144 815.56L202.004 810.317L205.613 804.393L208.813 799.899L211.877 795.881L216.031 791.251L220.729 786.348L227.062 780.152L233.054 774.773L239.522 768.985L245.378 764.151L250.962 760.406L256.681 756.592L263.014 752.915L268.802 749.783L274.726 746.855L280.309 744.472L286.438 742.203L293.383 740.387L300.669 738.616L309.18 737.118L320.075 735.484L333.012 733.577L346.971 731.807L357.117 730.513L370.054 728.811L378.566 727.245L387.418 725.338L393.886 723.159L401.036 720.572L405.53 719.074L411.522 717.712L420.238 716.623L428 715.669L440.529 714.92L448.564 714.58L461.842 714.58L472.464 714.92L476.686 715.465L482.133 716.963L490.781 719.482L496.841 721.321L500.927 722.138L502.901 722.41L506.17 722.615L509.438 722.138L511.821 721.117L514.545 718.938L516.996 715.942L519.175 712.06L521.082 707.226L522.512 701.234L523.601 693.676L524.759 686.117L525.644 681.283L526.665 677.129L527.618 674.882L529.593 672.295L532.657 669.844L536.743 667.869L540.556 666.711L545.459 665.418L547.637 664.532L551.11 662.558L553.289 661.332L555.264 659.97L557.375 659.017L561.12 658.404L570.516 658.404L581.819 658.813L583.59 658.404L585.088 657.519L586.586 655.885L590.331 652.276L595.029 647.714L601.021 642.879L608.171 637.432L614.299 632.87L621.585 626.81L627.305 622.111L633.773 615.711L637.587 611.148L639.017 609.31L639.766 607.131L640.515 603.795L640.515 600.799L640.038 597.462L638.404 594.534L636.769 592.968L635.135 592.219L632.344 591.81L627.918 592.287L623.628 593.853L618.044 596.441L610.827 599.845L600.817 605.655L590.829 610.557L582.476 614.188L573.033 618.001L560.504 623.631L551.878 627.534L540.439 633.344L528.727 638.519L516.925 643.511C516.925 643.511 508.754 646.417 508.392 646.507C508.03 646.597 499.586 649.048 499.586 649.048L494.049 650.138L487.875 651.317L481.61 651.679L476.98 651.135L470.805 649.683L462.907 646.687L454.918 643.146L447.564 640.06L438.849 636.43L431.677 632.616L423.689 627.986L417.879 624.083L412.522 620.36L408.164 616.547L403.623 612.189L399.9 608.193L395.815 603.291L391.729 597.571L388.643 592.578L385.557 586.676L383.106 580.05L380.927 572.696L379.203 566.704L377.751 560.349L376.662 549.999L376.117 539.832L376.389 527.303L377.569 516.771L379.838 507.055L382.017 500.791L384.65 494.616L387.829 488.714L391.46 482.994L395.545 476.368L397.179 473.009L397.906 471.013L397.817 468.652L396.999 466.928L395.183 465.838L392.642 465.111L389.556 465.473L386.65 466.925L382.836 469.376L378.389 473.279L373.214 478.909L369.583 484.084L366.405 489.259L363.953 494.796L361.864 500.878L359.595 507.505L357.599 514.948L355.058 525.209L352.517 534.559L349.431 544.364L347.162 551.083L344.8 557.075L341.714 563.068L338.174 569.149L334.905 573.69L330.637 578.592L326.824 582.86L321.832 587.308L316.202 591.304L309.03 596.117L301.494 601.109L293.233 606.284L286.514 610.459L279.342 615.272L274.394 619.268L269.717 623.536L267.176 627.076L263.363 632.614L259.187 640.695L255.012 648.866L251.654 654.496L247.93 658.854L243.21 663.939L237.853 667.934L232.678 670.658L226.776 672.927L220.873 674.833L214.154 676.378L205.893 677.377L197.632 677.832L178.929 678.377L171.665 678.922L161.497 680.466L154.871 681.738L145.883 683.554L139.256 684.916L132.357 686.64L125.275 687.64L118.376 688.457L109.116 689.002C109.116 689.002 103.963 689.547 103.862 689.547C103.761 689.547 97.5866 690.636 97.5866 690.636C97.5866 690.636 89.5054 692.543 89.2331 692.543C88.9607 692.543 77.8836 695.084 77.8836 695.084L68.0783 697.353L55.1872 699.986L47.3785 701.893L35.3044 704.434L28.4054 705.706L20.9616 706.433L12.8805 706.706L0.26171 706.978" stroke="#14A0FF" stroke-width="0.584008" stroke-miterlimit="10"/>
<path d="M220.048 908.165L218.005 901.083L215.554 892.231L212.966 882.426L210.97 873.029L210.063 865.675L209.608 858.232L209.608 846.792L210.243 838.531L211.695 831.177L214.146 823.369L217.687 815.108L221.41 807.664L225.313 800.765L230.85 793.411L234.846 788.871L240.655 782.606L247.192 776.976L254.818 771.257L261.628 766.716L269.436 762.358L276.973 758.363L284.509 755.184L292.863 752.188L301.578 749.647L309.294 747.74L318.827 746.468L329.54 746.014L347.243 744.562L359.5 743.2L373.48 740.931L392.274 737.935L406.347 735.666L424.051 732.943L431.495 732.126L436.307 731.671L446.113 731.671L455.828 732.488L463.816 733.305L474.349 735.212L484.516 737.028L494.232 738.662L499.769 739.207L504.309 739.662L516.928 739.48L523.102 738.845L526.553 737.845L528.822 736.756L532.18 734.849L534.269 732.67L536.538 729.492L537.538 725.406L538.265 719.324L539.809 703.982L541.081 695.993L542.716 690.546L545.167 685.916L548.163 681.648L551.159 679.107L554.337 677.29L557.606 676.111L563.96 675.383L578.85 674.656L584.843 674.022L588.111 672.75L590.38 671.115L594.103 667.392L601.002 659.766L612.442 649.416L621.792 641.155L635.228 629.261L645.94 618.911L655.29 608.923L659.648 603.114L663.734 596.849L666.275 592.219L669.361 586.499L672.629 579.873L675.17 573.426L676.804 568.433L677.711 563.893L678.074 559.625L677.257 557.356L675.805 555.539L673.716 554.632L670.63 554.632L665.545 555.177L661.822 556.449L656.736 558.81L649.383 562.351L640.509 566.799L634.223 570.067L624.872 574.97L613.523 580.6L603.083 585.865L592.188 590.585L582.473 595.487L571.306 600.3L561.591 604.658L552.33 608.833L538.439 615.37L528.179 621L518.192 625.358L512.2 627.719L505.48 629.808C505.48 629.808 499.033 631.353 498.761 631.353C498.489 631.353 492.042 632.442 492.042 632.442L485.233 632.897L477.244 632.625L470.89 631.718L464.443 629.993L458.451 627.452L451.552 624.184L443.381 619.009L436.661 614.016L430.125 608.387L424.95 603.394L420.047 598.402L416.506 594.499L412.693 589.414L407.88 582.787L404.794 577.25L401.981 571.712L399.53 566.537L396.988 559.456L395.082 553.281L394.265 548.561L393.448 541.57L393.175 530.313L393.265 520.145L393.72 511.792L394.81 505.8L396.081 500.897L398.171 494.45L401.439 488.458L404.435 483.373L409.427 477.109L416.054 468.755L421.774 460.494L425.497 453.685L427.676 448.965L428.403 445.062L428.403 441.976L427.041 439.07L424.408 437.618L421.501 437.618L413.33 438.797L404.887 441.249L397.443 444.427L388.728 448.603L381.284 453.323L373.747 459.225L366.938 465.762L360.674 473.205L354.772 482.376L350.776 489.73L347.235 497.991L344.057 507.341L342.15 514.24L340.333 521.867L338.609 528.041L336.793 533.851L334.524 538.298L330.801 544.291L326.898 550.283L323.447 554.73L318.089 561.45L313.276 567.169C313.276 567.169 309.373 571.255 309.009 571.255C308.644 571.255 299.476 579.881 299.476 579.881L291.577 584.966L286.764 587.6C286.764 587.6 281.862 589.961 281.589 590.051C281.317 590.141 277.049 592.23 277.049 592.23L272.874 595.226L269.06 598.584L262.706 605.483L258.348 611.385L253.446 619.829C253.446 619.829 248.543 628.545 248.271 628.545C247.998 628.545 243.73 636.898 243.73 636.898L238.738 644.887L234.742 649.972L231.291 653.15L227.206 656.146L222.486 658.687C222.486 658.687 217.766 660.594 217.401 660.866C217.038 661.139 210.774 663.318 210.774 663.318L204.51 664.952L196.883 666.586C196.883 666.586 190.709 667.675 190.346 667.675C189.984 667.675 179.814 669.127 179.814 669.127L170.191 670.034L153.487 670.579L138.779 671.578L129.881 672.306L121.8 673.485L113.446 675.482L105.548 677.116L96.4697 679.477L87.2992 681.839L78.311 683.928L69.8677 686.651L59.4279 688.83C59.4279 688.83 52.5288 690.192 52.1638 690.282C51.8016 690.372 40.1797 692.189 40.1797 692.189L27.3784 693.55L17.7557 694.367L0.234366 695.185" stroke="#14A0FF" stroke-width="0.584008" stroke-miterlimit="10"/>
<path d="M239.115 908.165L237.889 899.449L236.664 888.963L235.302 876.434L234.621 863.361L234.621 849.606L235.438 835.852L236.868 826.727L239.115 818.148L242.111 810.658L246.605 804.393L251.508 798.81L256.819 793.771L264.309 787.523L274.387 781.651L285.554 775.795L295.223 771.982L306.254 768.305L315.106 765.853L323.549 764.628L332.265 763.674L352.147 762.313L368.762 761.223L389.189 759.453L402.263 757.682L421.873 754.278L435.083 752.644L444.616 751.418L457.009 750.601L467.767 750.601L476.211 751.826L485.88 754.278L498.545 757.819L506.579 760.542L512.163 761.359L518.7 761.495L528.641 760.815L534.769 759.317L539.944 757.138L544.302 754.55L548.115 750.601L551.928 744.745L555.197 737.255L557.648 726.633L561.461 712.878L564.457 705.66L567.59 701.302L571.13 697.762L576.033 694.766L583.523 692.859C583.523 692.859 595.916 688.093 595.507 688.093C595.099 688.093 602.316 684.552 602.316 684.552L606.674 681.42L610.487 677.47L614.981 672.159L618.931 666.031L627.102 655L636.771 646.42L647.257 637.296L656.245 629.67L663.871 622.588L669.319 617.005L674.221 611.421L678.081 605.429L681.167 599.71" stroke="#14A0FF" stroke-width="0.584008" stroke-miterlimit="10"/>
<path d="M264.352 908.165L262.811 898.632L261.04 889.507L258.998 882.971L257.227 877.659L256.41 873.574L256.41 866.356L257.091 860.909L258.589 853.827L261.177 844.839L263.764 835.715L265.534 828.77L266.488 823.867L268.667 819.101L272.616 814.062L276.429 809.84L282.557 804.801L289.23 800.307L298.355 794.86L306.253 791.047L317.148 786.689L326.408 783.693L335.533 781.65L345.883 779.88L369.715 777.565L384.695 776.884L407.301 776.067L412.613 775.386L420.784 773.207L432.495 770.619L441.211 768.985L451.833 768.032L462.456 768.032L470.627 768.849L476.074 770.075L482.202 771.981L489.42 775.93L497.319 779.607L501.54 780.969L505.217 781.786L513.388 782.603L519.789 781.923L525.917 780.424L533.68 777.973L543.349 773.751L553.018 770.347L560.916 767.079L565.41 763.674L569.223 758.499L572.492 751.417L576.441 740.523L579.71 729.22L582.161 720.504L584.204 715.056L586.519 710.835L589.787 707.294L592.647 705.251L597.822 703.481L607.491 701.71L613.483 699.94L617.16 698.578L620.02 696.944L622.607 694.22L625.74 687.411L629.689 680.057L633.094 675.019L638.813 667.937L644.533 661.945L652.432 653.774L662.373 644.377L675.174 634.163L681.166 630.078" stroke="#14A0FF" stroke-width="0.584008" stroke-miterlimit="10"/>
<path d="M286.869 908.165L285.417 875.388L284.736 861.454L284.736 849.606L285.801 838.439L286.869 832.719L288.822 827.953L293.044 821.28L298.491 815.696L303.53 812.02L309.386 808.479L317.42 804.257L326.408 800.989L333.762 799.082L341.797 797.72L355.143 797.039L388.917 797.72L401.446 797.039L407.165 795.405L414.519 792.273L421.737 789.822L427.184 788.596L434.538 787.779L450.744 786.962L460.277 786.962L467.222 788.187L475.257 790.911L487.65 795.133L499.906 799.899L505.49 801.397L511.618 801.942L520.606 801.67L528.505 800.444L537.084 797.856L544.847 795.269L552.337 792.273L559.963 788.324L570.449 782.195L576.441 777.293L581.616 771.301L584.885 765.445L587.608 757.955L589.787 748.558L592.102 738.072L594.281 731.399L596.596 726.632L599.456 722.547L602.452 719.823L607.219 717.644L614.709 716.283L628.327 714.104L632.821 712.742L636.226 710.427L640.515 706.341L643.171 701.166L647.12 692.995L653.93 682.509L659.649 676.517L668.365 668.21L681.166 657.043" stroke="#14A0FF" stroke-width="0.584008" stroke-miterlimit="10"/>
<path d="M304.482 908.165L306.661 898.994L309.203 891.005L311.381 885.193L314.65 879.384L316.829 876.298L318.463 873.936L319.19 870.85L319.19 867.762L317.556 864.676L315.922 859.591L315.739 855.053L316.284 850.15L317.736 845.972L320.38 842.704L329.54 833.988L338.073 828.361L344.972 825.093L351.874 823.638L361.135 822.187L370.757 822.187L380.2 823.458L392.185 826.362L399.084 827.816L405.438 828.541L410.885 828.179L415.97 826.544L422.69 822.186L429.406 818.373L433.402 816.557L438.304 815.467L443.207 815.467L452.285 816.557L467.358 818.736L475.529 820.008L484.969 820.19L507.486 820.19L522.738 820.915L536.539 822.549L548.158 824.548L551.971 825.455L555.784 825.093L560.87 823.276L565.772 820.37L573.761 812.926L582.297 803.483L587.924 798.401L593.191 794.043L600.818 789.685L608.444 785.689L611.53 783.51L612.802 781.331L612.802 772.253L612.074 750.282L612.802 745.562L614.436 742.838L616.432 740.294L619.518 738.66L632.774 733.033L644.031 728.13L651.658 724.317L655.836 720.866L659.104 716.508L662.735 710.334L664.914 702.707L666.548 695.446L669.089 688.909L672.357 682.917L676.715 677.832L681.166 674.564" stroke="#14A0FF" stroke-width="0.584008" stroke-miterlimit="10"/>
<path d="M324.637 908.165L328.085 899.721L332.443 888.462L334.442 879.746L335.395 865.948L335.395 857.913L336.348 853.691L338.119 850.15L340.706 848.38L343.975 846.61L347.379 845.656L355.959 845.656L369.305 847.154L384.694 848.652L395.588 849.197L405.802 848.789L412.066 847.699L417.65 846.337L428.953 842.797L446.793 839.12L456.19 837.622L465.723 837.622L489.282 838.847L510.391 841.435L531.363 844.839L544.981 848.108L550.837 848.652L557.238 848.38L562.549 847.018L568.269 844.703L573.716 841.298L581.615 834.625L592.101 824.276L602.587 814.607L609.532 809.568L619.882 803.576L625.194 798.945L629.96 793.907L633.092 788.595L634.59 782.603L635.68 773.615L635.68 765.308L636.497 761.631L637.722 759.725L641.399 756.456L645.621 753.937L654.609 749.647L664.551 744.608L669.181 740.523L673.266 734.122L674.492 729.492L675.99 714.92L677.352 707.43L678.714 703.208L681.165 700.757" stroke="#14A0FF" stroke-width="0.584008" stroke-miterlimit="10"/>
<path d="M342.479 908.165L343.159 904.351L346.155 898.223L349.56 891.278L353.646 882.562L356.097 876.025L357.595 870.442L358.276 867.582L359.229 865.539L360.727 864.45L365.63 863.769L401.582 863.769L419.422 862.815L431.951 860.909L455.511 857.232L461.367 857.232L473.351 857.232L481.249 858.049L492.144 860.5L513.116 863.36L527.688 864.722L545.937 865.131L560.236 864.041L564.73 863.088L570.313 860.364L578.484 854.917L588.562 846.201L600.682 835.443L613.892 823.322L624.242 814.198L631.46 809.023L636.09 806.163L639.358 804.461L643.171 803.712L647.257 803.712L651.342 805.21L652.296 807.116L652.296 809.84L650.253 814.47L647.393 819.918L642.218 829.314L636.635 838.983L629.417 851.648L625.195 859.411L620.701 868.808L617.569 877.796L614.028 888.418L611.849 899.449L610.487 908.165" stroke="#14A0FF" stroke-width="0.584008" stroke-miterlimit="10"/>
<path d="M356.322 908.165L359.046 900.083L361.587 893.909L363.859 888.916L366.038 885.193L369.758 881.29L372.937 878.749L376.023 877.294L387.555 876.477L415.971 874.843L450.106 872.664L474.44 871.804L490.918 873.029L507.805 875.344L536.901 879.746L555.605 882.107L563.776 882.29L571.764 881.38L577.029 879.201L583.749 874.663L587.924 872.664L590.375 871.804L592.192 871.804L595.823 872.664L597.549 874.481L598.274 877.294L597.549 881.473L596.188 887.465L594.553 895.363L593.826 902.445L593.099 908.165" stroke="#14A0FF" stroke-width="0.584008" stroke-miterlimit="10"/>
<path d="M368.217 908.165L369.669 904.079L373.844 898.267L377.477 895.181L382.015 893.002L392.91 889.984L405.076 887.555L421.236 885.738L453.195 884.286L476.074 884.286L494.957 886.827L523.828 891.368L543.256 894.091L557.057 894.998L577.212 895.181L580.48 895.453L582.297 896.224L583.387 897.994L583.387 899.901L582.477 902.807L581.115 906.075L579.573 908.165" stroke="#14A0FF" stroke-width="0.584008" stroke-miterlimit="10"/>
<path d="M408.527 908.165L415.426 905.893L421.418 904.624L428.5 903.715L441.936 903.715L451.741 904.624L461.729 905.94L467.903 908.165" stroke="#14A0FF" stroke-width="0.584008" stroke-miterlimit="10"/>
<path d="M621.697 908.165L623.331 900.99L626.782 889.984L632.412 878.477L637.495 867.399L639.673 862.135L640.515 855.938L642.035 850.15L644.576 845.065L655.108 828.723L663.097 817.284L671.633 806.027L675.446 799.852L678.077 793.316L681.166 782.603" stroke="#14A0FF" stroke-width="0.584008" stroke-miterlimit="10"/>
<path d="M638.584 908.165L639.673 899.901L641.852 892.64L644.941 884.286L651.432 873.754L655.108 864.493L656.925 857.594L658.377 853.236L662.19 848.696L681.166 828.541" stroke="#14A0FF" stroke-width="0.584008" stroke-miterlimit="10"/>
<path d="M650.752 908.165L652.296 900.628L654.383 895.181L656.926 891.185L659.876 884.286L662.554 876.477L664.553 869.578L667.276 864.313L670.907 859.411L681.167 849.241" stroke="#14A0FF" stroke-width="0.584008" stroke-miterlimit="10"/>
<path d="M667.455 908.165L669.089 904.259L671.813 900.084L681.166 891.551" stroke="#14A0FF" stroke-width="0.584008" stroke-miterlimit="10"/>
<path d="M0.25 680.466L7.05917 678.832L13.7322 677.47L28.5762 676.789L44.5096 675.291L53.2254 674.202L64.2562 671.614L74.1976 669.163L91.2205 664.397L103.853 661.401L117.142 658.949L144.877 656.77L184.642 654.864L194.448 653.638L199.895 651.595L208.066 647.374L214.875 643.016L221.684 636.479L227.132 629.534L232.443 622.316L236.664 614.009L240.205 605.021L243.61 597.667L246.333 592.492L250.01 587.725L253.96 583.368L259.271 580.099L265.263 576.24L276.839 570.975L282.422 567.706L289.367 562.531L296.721 555.995L302.713 549.73L306.799 544.555L310.748 538.699L316.332 529.167L321.098 518.953L327.363 506.152L333.763 493.35L340.028 480.277L346.292 468.565L351.058 460.802L357.187 452.768L363.043 446.503L368.49 442.69C368.49 442.69 377.478 437.425 377.07 437.605C376.661 437.787 389.462 431.659 389.462 431.659L401.446 427.574L410.434 424.578L422.282 421.037L449.519 413.819L463.818 409.87L470.764 407.555L477.028 404.559L483.974 401.018L491.6 395.979L500.316 389.578L509.848 381.271L523.058 369.423L536.404 357.439L546.618 349.132L555.061 341.914L569.361 332.109L582.434 323.257L599.185 312.907L615.935 300.923L622.744 295.34L629.417 289.075L636.363 280.768L642.9 270.827L646.713 264.017L650.526 254.893L652.569 248.084L655.156 238.96L657.744 229.427L660.603 217.443L663.736 206.957L666.459 199.33L670.136 191.976L673.541 186.257L678.307 179.72L681.167 176.86" stroke="#14A0FF" stroke-width="0.584008" stroke-miterlimit="10"/>
<path d="M681.166 268.239L672.858 271.643L668.773 272.324L665.913 271.507L664.415 269.601L663.189 266.877L663.189 263.608L663.87 255.846L665.913 247.13L673.948 222.345L677.353 209.952L679.123 205.186L680.485 201.781L681.166 200.283" stroke="#14A0FF" stroke-width="0.584008" stroke-miterlimit="10"/>
<path d="M681.165 530.391C680.348 530.391 668.364 537.745 668.364 537.745L647.936 550.001L608.988 568.522C608.988 568.522 586.926 581.324 586.109 581.324C585.292 581.324 561.324 593.035 561.324 593.035L538.989 603.113L520.469 611.284L510.663 613.191C510.663 613.191 501.675 615.097 500.586 615.097C499.496 615.097 491.598 613.191 491.598 613.191L476.345 607.743L457.892 595.759L445.84 585.409L438.486 575.059L431.405 560.079L427.864 545.644L426.502 530.391L426.502 512.687L428.409 500.703L431.405 491.715L437.941 481.093L447.474 471.015L457.892 463.661L477.162 451.949L491.598 442.961L504.671 433.973L521.558 418.448L535.449 403.196L546.888 389.033L558.6 374.052L571.946 360.979L587.743 346.543L608.443 329.384L642.216 305.961L661.01 294.794L681.165 284.988" stroke="#14A0FF" stroke-width="0.584008" stroke-miterlimit="10"/>
<path d="M681.167 514.774C680.532 514.774 673.813 520.584 673.813 520.584L665.824 526.576L659.832 530.389C659.832 530.389 653.478 533.658 652.933 534.02C652.388 534.382 645.307 536.926 644.58 536.926C643.852 536.926 633.685 539.65 633.685 539.65L624.607 542.918L617.163 548.003L610.809 551.999L604.634 555.085L596.281 556.901C596.281 556.901 584.479 559.263 583.934 559.263C583.39 559.263 577.215 561.624 576.67 561.624C576.126 561.624 569.771 565.075 569.771 565.075L556.335 574.336L545.623 580.51C545.623 580.51 533.457 585.595 532.912 585.595C532.367 585.595 522.562 587.774 522.562 587.774L511.85 588.681L503.496 587.229L496.232 583.599L486.609 576.245L475.715 565.623L465.727 553.821L459.008 544.56L454.288 534.393L452.836 527.674L452.836 521.137L454.47 512.783L460.1 501.889L468.794 490.994L480.62 479.192L495.873 467.57L509.673 457.765L519.661 451.591L529.104 446.506L533.279 443.42L538.544 437.61L543.264 430.166L549.984 418L560.878 398.752L568.687 386.585L578.855 375.328L593.562 362.072L613.718 346.819L630.604 335.198L653.483 319.038L661.472 312.501L666.919 308.326L671.459 305.785L676.544 303.061L681.175 301.789" stroke="#14A0FF" stroke-width="0.584008" stroke-miterlimit="10"/>
<path d="M681.165 495.256L672.449 505.878L662.099 514.594L652.022 522.492L643.579 524.944C643.579 524.944 634.863 525.216 634.046 524.944C633.229 524.671 625.058 522.765 625.058 522.765L620.155 523.31L616.069 527.94L611.984 534.204L606.809 538.835L599.183 540.741L589.65 540.741L582.568 542.92L575.214 547.55L566.997 553.27L553.834 562.53C553.834 562.53 537.083 570.701 536.266 570.701C535.449 570.701 524.282 575.059 523.465 575.059C522.648 575.059 514.749 575.787 513.932 576.239C513.115 576.693 506.033 573.697 506.033 573.697L498.407 569.34L489.147 560.351L481.52 548.912L476.618 539.379L475.256 532.025L475.256 520.041L476.89 510.781L480.703 503.154L488.602 493.077L497.045 482.999L502.22 476.463L507.123 472.922L521.558 466.385L538.445 458.759L543.348 454.218L547.161 450.043L548.523 444.051L549.612 437.604L552.336 428.662L556.149 421.989L571.946 401.562L582.841 389.577L593.463 380.317L605.447 373.78L624.513 366.154L642.489 360.434L658.014 357.438L670.27 357.438L681.165 358.528" stroke="#14A0FF" stroke-width="0.584008" stroke-miterlimit="10"/>
<path d="M681.166 445.23L679.439 459.938L676.716 473.011L673.992 483.179L670.361 489.716L665.096 496.252L659.104 499.886L650.206 503.154L642.218 504.788L624.421 506.24L617.705 507.512L614.071 509.508L607.717 515.138L599.728 524.399L596.095 527.122L592.464 528.757L583.931 529.846L578.211 531.115L574.126 533.114L568.314 538.924L561.052 545.278L553.835 550.181L549.885 552.453L543.348 554.495L532.862 560.079L526.87 563.62L521.287 564.845L517.746 564.845L512.299 562.53L498.816 554.087L492.688 546.597L489.147 540.06L487.377 534.749L486.9 527.871L487.309 521.335L488.262 516.023L490.237 511.189L493.505 504.652L496.365 500.09L499.838 496.413L504.332 492.872L508.281 490.489L514.341 488.242L522.172 485.995L532.045 483.952L537.833 482.318L541.918 481.297L545.119 479.799L548.319 477.892L552.516 474.011L555.695 469.016L558.329 461.299L561.325 452.674L565.228 442.689L569.313 433.608L574.033 425.075L580.118 415.814L585.2 408.915L592.009 401.924L598.546 396.566L605.083 392.391L614.071 388.033L623.059 384.402L633.682 380.134L639.494 378.138L644.486 376.956L649.934 376.231L656.743 375.776L664.459 376.231L668.909 376.956L673.992 378.682L681.166 381.858" stroke="#14A0FF" stroke-width="0.584008" stroke-miterlimit="10"/>
<path d="M500.493 540.286L502.765 544.099L506.033 547.64L510.119 550.274L514.204 552.453L517.473 553.27L522.738 552.905L526.461 552.181L531.271 550.274L536.718 547.278L543.348 543.282L549.884 539.014L552.698 536.201L554.332 534.022L555.059 532.115L555.059 528.574L554.422 523.944L552.88 519.224L550.429 515.773L545.706 510.871L541.169 507.512L535.266 504.424L529.092 501.972L524.372 500.976L520.104 500.338L515.474 500.338L510.936 501.155L507.485 502.61L503.672 506.423L501.038 511.143L499.497 515.318L498.225 522.582L498.225 528.664L499.042 537.018L500.493 540.286Z" stroke="#14A0FF" stroke-width="0.584008" stroke-miterlimit="10"/>
<path d="M507.577 539.742L510.12 542.738L513.024 544.735L516.837 546.096L520.288 546.551L523.919 545.824L527.459 544.19L532.272 541.194L535.903 537.746L539.264 533.478L540.715 530.299L540.715 526.805L539.626 524.127L536.812 521.676L530.365 518.497L525.191 516.681L521.377 515.956L516.565 515.956L513.206 516.681L510.573 518.587L508.031 521.039L506.125 524.49L505.49 528.213L505.49 533.66L506.487 537.291L507.577 539.742Z" stroke="#14A0FF" stroke-width="0.584008" stroke-miterlimit="10"/>
<path d="M572.628 491.443L578.211 495.12L585.157 497.98L591.557 499.614L597.822 500.431L606.129 500.431L612.802 499.614L623.016 497.571L632.412 496.754L644.805 495.937L649.98 494.848L653.929 493.077L657.606 489.4L660.466 484.634L662.917 477.961L666.594 462.164L671.225 440.102L674.902 424.849L677.081 411.912L677.081 402.379L676.263 394.208L674.221 390.667L669.999 386.854L664.824 385.084L660.466 384.403L650.933 384.403L643.443 385.765L632.276 389.169L622.88 392.846L613.211 398.838L603.678 406.328L594.009 414.908L587.608 422.67L581.48 431.522L574.671 446.639L569.904 459.304L567.998 468.019L566.998 474.692L567.589 483.953L569.223 487.358L572.628 491.443Z" stroke="#14A0FF" stroke-width="0.584008" stroke-miterlimit="10"/>
<path d="M579.845 482.727L582.569 485.587L586.11 487.766L590.195 488.992L610.623 489.945L628.735 489.264L636.906 487.902L643.579 485.451L648.754 481.91L652.159 477.552L655.018 471.152L659.24 456.308L664.96 431.931L666.594 420.627L666.594 412.593L665.505 407.418L662.508 403.196L658.014 401.426L650.797 399.928L642.217 399.928L633.774 401.017L627.918 402.924L624.105 405.103L617.296 410.414L605.584 421.308L595.098 432.748L586.246 444.936L582.569 454.218L579.845 463.798L578.211 470.31L578.211 476.463L579.845 482.727Z" stroke="#14A0FF" stroke-width="0.584008" stroke-miterlimit="10"/>
<path d="M598.638 468.429L603.269 472.515L609.941 475.375L615.116 476.873L620.836 476.873L628.326 475.375L633.91 472.651L638.949 468.429L643.034 462.846L645.485 456.99L646.711 449.364L646.711 437.605L645.349 431.932L641.672 427.71L638.268 426.621L632.548 426.621L626.964 428.664L615.797 433.975L605.856 440.784L600.409 447.457L596.732 454.22L596.051 458.896L596.051 463.527L598.638 468.429Z" stroke="#14A0FF" stroke-width="0.584008" stroke-miterlimit="10"/>
<path d="M0.25 660.447L5.9697 658.404L13.3236 656.361L19.588 654.999L25.5801 654.046L52.4082 652.821L59.4898 651.867L67.5246 649.416L75.5594 645.467L81.8239 641.245L85.5008 639.611L90.4034 637.977L95.8508 637.023L110.15 636.206L127.718 635.253L138.749 634.027L149.235 632.121L160.129 629.261L170.071 626.401L181.374 622.86L190.362 619.047L196.626 615.642L201.257 611.693L205.07 607.471L207.385 601.752L209.019 592.764L210.517 584.184L212.151 578.737L215.284 571.928L219.097 566.344L223.727 561.578L230.128 556.403L236.256 552.862L249.738 546.461L261.041 540.742L269.485 535.158L276.158 529.711L282.286 523.991L287.733 516.501L292.636 509.283L298.492 498.661L306.118 481.774L313.608 467.339L320.382 452.903L325.456 443.507L329.814 436.697L336.351 428.663L344.385 420.764L350.514 415.998L356.233 413.138L362.225 410.823L376.933 406.056L386.602 401.971L401.991 396.251L421.874 389.306L442.846 383.313L462.729 377.866L467.495 375.777L473.487 372.691L479.343 368.469L488.059 362.205L497.864 354.17L513.661 340.143L521.56 333.334L533.68 325.299L545.392 318.082L551.929 314.132L560.1 308.276L570.178 300.514L580.255 292.615L594.146 279.406L601.908 270.417L605.858 263.2L607.219 258.025L607.219 252.85L606.266 244.951L604.087 237.597L599.457 228.881L592.92 217.17L589.516 208.999L588.154 202.87L588.018 197.695L588.29 193.065L588.971 190.069L590.605 185.575L593.056 182.851L598.231 177.949L607.219 170.595L615.799 165.284L618.931 162.288L621.791 157.658L623.834 151.121L624.787 143.631L624.787 131.374L625.877 122.795L627.783 115.577L629.962 109.176L633.367 101.414L636.907 96.375L643.172 88.8849L649.028 82.7567L652.977 76.2199L655.701 69.0021L659.241 57.8351L661.012 49.2555L663.599 33.3221L664.689 16.8439L665.642 4.58737L666.595 0.273055" stroke="#14A0FF" stroke-width="0.584008" stroke-miterlimit="10"/>
<path d="M681.166 144.176L673.085 153.799L667.455 159.974L659.829 166.873L656.381 171.958L653.837 176.86L651.84 182.125L650.024 191.386L647.665 203.008L645.486 214.447L642.035 224.252L638.405 229.155L635.136 230.969L631.503 230.969L627.327 228.972L620.791 223.342L616.615 217.715L614.981 213.175L614.344 209.544L614.344 205.187L615.706 200.556L619.519 192.385L624.514 183.67L631.323 172.048L635.316 163.242L637.133 157.067L638.405 147.989L639.494 131.103L640.946 120.026L643.487 112.762L649.479 102.777L657.288 91.5169L664.552 80.4425L674.902 64.1005L680.349 52.1163L681.166 49.3927" stroke="#14A0FF" stroke-width="0.584008" stroke-miterlimit="10"/>
<path d="M0.25 643.696L8.33113 641.879L16.8644 640.427L33.0239 638.611L54.9957 636.794L60.4431 635.887L65.8904 632.981L79.871 626.444L86.0456 624.083L92.9446 622.266L110.376 621.359L124.722 619.907L134.527 618.091L146.149 615.184L160.129 611.009L171.751 605.924L178.833 601.566L189 592.85L197.171 582.318L201.891 574.509L204.615 568.335L205.522 560.891L207.156 556.715L212.966 549.816L219.503 544.552L226.767 540.738L236.027 536.563L242.926 533.477L248.374 529.664L259.63 520.041L271.432 509.147L281.055 497.345L292.494 481.91L299.393 470.108L304.113 460.303L307.744 450.498L310.468 441.6L314.643 431.794L320.374 422.351L326.627 415.452L334.981 407.281L346.238 400.017L359.311 394.387L370.023 390.03L384.731 384.945L404.342 378.77L426.493 372.416L449.734 365.879L459.357 362.248L465.349 359.525L473.882 353.35L481.691 346.813L494.947 333.74L500.939 327.203L506.204 322.845L517.826 315.401L530.537 306.868L543.973 297.425L554.685 289.071L565.58 277.632L578.199 263.831L584.022 255.478L586.098 250.937L587.187 245.852L587.187 241.132L585.915 235.502L583.009 230.055L577.379 221.701L571.205 214.258L561.582 205.18L551.594 197.009L542.696 191.017L534.163 187.021C534.163 187.021 528.353 185.749 527.808 185.387C527.264 185.025 511.284 183.57 511.284 183.57L473.152 180.302L458.627 176.851L450.456 173.038L444.102 169.587L441.561 166.318L438.292 159.419L434.479 152.883L428.304 146.528L423.947 141.081L422.312 136.906L421.405 131.276L421.768 124.012L423.04 116.748L427.58 104.581L433.027 92.2346L436.478 86.06L439.019 83.8811L442.47 81.34L447.555 80.433L460.991 82.4294L471.703 85.3356L484.96 90.6004L497.671 96.775L512.923 105.673L525.09 114.027L540.16 123.105L555.05 130.913L570.665 136.723L583.739 140.174L591.548 141.808L598.991 142.715L604.621 142.898L608.617 141.446L611.523 138.177L614.337 130.189L615.516 120.566L617.15 108.765L619.329 99.8663L621.508 94.0567L624.232 89.5164L629.861 82.9796L636.581 76.4428L640.394 71.3577L644.025 62.6419L645.841 54.1087L647.748 41.2176L648.747 24.3308L649.837 9.62302L651.289 0.27264" stroke="#14A0FF" stroke-width="0.584008" stroke-miterlimit="10"/>
<path d="M490.645 159.565L492.687 161.471L497.045 162.969L502.901 163.923L507.395 165.012L511.208 166.919L516.52 169.506L520.469 170.596L526.325 170.596L530.683 169.642L535.313 166.783L538.036 163.65L539.398 160.382L539.398 156.16L538.173 151.939L534.36 146.083L528.912 140.908L524.418 138.456L518.29 136.822L510.391 136.005L503.31 136.005L497.999 136.822L493.505 139.001L490.645 141.861L488.874 144.857L488.193 149.623L488.193 154.526L489.01 157.658L490.645 159.565Z" stroke="#14A0FF" stroke-width="0.584008" stroke-miterlimit="10"/>
<path d="M0.25 627.172L8.33112 626.083L21.2222 623.177L39.5607 617.547L58.9886 610.465L64.6185 608.286L69.7035 606.652L79.5088 605.745L106.383 605.745L125.994 603.384L140.884 600.66L150.144 597.937L159.587 593.761L168.303 587.042L176.836 577.599L183.191 565.977L189.91 551.814L192.996 545.277L196.264 540.557L201.167 536.382L210.79 530.572L224.046 522.401L236.212 513.141L244.928 506.059L256.414 494.075L264.538 483.725L271.075 472.103L283.242 449.586L294.864 429.431L303.942 414.724L312.295 403.646L321.918 393.114L329.362 387.304L337.35 383.309L346.611 379.496L358.233 375.682L383.29 369.328L406.169 363.881L432.861 357.434L441.394 353.893L451.017 349.718L459.188 344.453L466.814 340.277L474.258 334.83L485.335 325.025L498.409 311.951L505.49 304.687L519.109 292.341L535.451 277.271L544.529 267.103L549.794 260.022L554.879 253.123L558.33 246.404L559.419 242.046L559.419 237.688L558.33 233.33L553.836 229.155L548.342 225.341L541.26 222.98L532.727 220.801L515.84 217.35C515.84 217.35 499.861 214.444 499.316 214.444C498.771 214.444 490.6 212.627 490.6 212.627L483.519 211.538L473.896 211.538C473.896 211.538 466.087 213.717 465.363 213.899C464.635 214.082 454.468 218.984 454.468 218.984L440.122 226.428L423.236 235.689L409.98 242.043L398.902 244.767L389.642 245.311L381.653 244.404L372.938 240.954L366.039 235.324L362.408 229.876L360.956 224.974L360.412 217.53L361.501 208.814L364.769 198.102L368.22 188.114L370.037 182.122L371.126 174.858L372.033 162.512L374.03 155.43L376.754 148.166L383.29 134.548L391.824 120.567L398.543 109.128L401.629 102.953L404.352 96.4166L409.073 84.6149L414.158 74.8097L417.426 69.9071L422.691 65.0046L428.865 61.7362L438.308 58.2852L446.842 56.651L461.732 56.651L474.078 59.0125L481.522 61.7362L493.689 68.8177L509.304 78.2606L525.646 88.2483L551.066 103.318L566.863 112.941L573.4 116.572L579.574 118.933L583.387 119.478L589.379 118.933L592.83 117.116L595.192 113.848L596.281 108.218L596.281 99.6849L597.371 93.3307L598.822 87.3386L602.636 80.9843L609.535 71.9063L620.429 58.6502L624.97 51.9309L627.331 46.8457L630.599 37.5853L633.323 25.7837L635.502 13.2549L638.043 0.271021" stroke="#14A0FF" stroke-width="0.584008" stroke-miterlimit="10"/>
<path d="M0.25 599.208L11.7793 597.574L22.4915 596.123L40.4677 594.306L51.7246 593.399L97.2998 593.399L111.463 592.309L124.174 590.675L133.072 588.314L147.053 583.229L157.22 578.144L160.306 575.238L163.392 571.062L171.381 557.988L178.645 545.46L183.185 539.285L191.356 529.118L198.255 522.398L205.337 516.951L212.056 512.776L217.503 509.145L221.679 505.149L226.581 500.609L235.659 490.621L246.192 477.91L255.635 464.292L264.533 450.673L272.159 438.689L279.786 427.067L286.322 418.351L292.314 410.908L303.392 398.017L317.737 383.309L328.27 375.5L333.423 371.504L341.888 367.509L352.238 363.333L370.032 358.068L391.094 352.076L414.7 346.629L432.314 343.361L440.123 342.089L444.48 340.272L451.379 336.276L470.083 321.977L486.902 307.406L498.771 295.966L511.845 282.893L522.557 269.819L530.911 259.107L533.452 254.931L534.541 251.301L534.541 248.76L531.455 246.398L524.011 242.402L510.576 238.407L495.868 234.776C495.868 234.776 484.428 232.597 483.884 232.597C483.339 232.597 475.258 231.69 475.258 231.69L467.542 232.418L461.732 234.959L451.744 241.496L437.764 249.122L422.694 255.476L406.352 260.741L393.278 262.92L377.843 264.192C377.843 264.192 366.221 263.102 365.676 263.102C365.132 263.102 356.054 260.561 355.509 260.379C354.964 260.196 348.245 255.476 348.245 255.476L344.794 249.667L343.16 243.857L344.432 228.604L346.611 214.259L347.883 199.913L349.517 188.474L351.151 178.306L353.875 167.229L358.415 153.428L362.228 143.623L365.679 137.449L370.582 131.274L373.305 127.643L376.936 121.651L382.201 110.212L387.286 97.6831L392.551 83.3375L398.36 69.7191L402.174 62.2754L407.621 56.6455L413.975 52.2877L419.24 48.8368L427.773 45.5684L436.672 42.6623L444.298 41.0281L452.651 39.5763L464.273 39.5763L471.537 40.4833L480.98 42.6623L490.968 46.6579L503.679 52.6499L519.114 62.0929L535.456 72.8051L552.888 85.1515L561.421 90.4163L567.051 93.5022L570.319 94.4092L572.861 94.2267L576.491 93.1372L579.032 90.2311L582.118 83.6943L584.48 78.6092L587.931 72.2549L592.833 66.8075L599.732 59.9085L603.728 55.0059L608.813 47.3796L612.809 38.6639L617.711 26.4973L620.073 15.785L621.524 8.3413L621.524 0.260131" stroke="#14A0FF" stroke-width="0.584008" stroke-miterlimit="10"/>
<path d="M0.25 582.823L14.5493 582.823L23.5374 582.006L29.2571 581.325L31.2998 579.691L32.1169 577.375L32.1169 575.196L30.0742 572.337L22.1755 565.391L13.1874 557.901L7.87627 555.314L2.56512 553.543C2.15657 553.407 0.249999 553.543 0.249999 553.543" stroke="#14A0FF" stroke-width="0.584008" stroke-miterlimit="10"/>
<path d="M0.249998 524.673L2.83748 523.039L5.83352 522.222L9.64665 522.222L16.1835 523.447L22.4479 526.171L29.2571 529.984L34.7044 534.614L38.2452 540.47L39.8794 546.871L42.0583 558.31L44.2372 570.431L46.28 574.789L49.4122 577.648L53.2254 579.01L58.4003 579.01L81.8239 578.193L99.6639 576.24L108.243 575.469L115.597 573.971L121.998 571.656L127.445 568.933L132.076 565.937L136.025 561.987L140.927 556.812L149.779 545.509L159.312 533.797L163.262 528.622L171.705 520.86L180.284 513.915L189.545 507.378L196.763 501.113L207.657 490.627L217.599 480.686L225.089 471.425L229.583 465.115L231.081 462.029L231.081 459.577L229.991 457.126L226.587 455.492L218.961 454.811L209.836 454.22L203.027 451.134L194.584 445.414L189.545 441.601L185.549 436.154L183.37 431.613L182.826 427.8L184.277 421.446L188.273 414.909L198.623 405.828L206.976 398.567L212.604 391.848L214.603 386.945L215.692 376.233L215.692 362.25L216.782 356.258L219.323 350.266L222.953 342.46L228.221 335.196L231.081 331.927L237.482 328.841L248.376 324.663L261.812 318.671L271.435 312.317L281.24 304.508L288.866 295.43L294.496 286.17L297.947 276.909L300.306 269.645L302.85 258.933L304.846 244.587L306.48 234.782L308.477 227.701L312.11 218.623L316.83 207.91L329.542 180.674L340.709 157.068L346.973 144.177L351.331 137.275L357.323 129.286L361.681 122.932L367.128 112.762L374.21 95.6952L382.381 72.4514L387.101 60.4672L391.459 51.934L397.268 44.8525L406.711 37.2262L413.975 33.0508L421.601 29.4174L433.948 25.2421L447.566 23.2456L462.457 23.2456L471.534 24.3351L480.612 26.514L493.141 31.0516L507.304 38.3157L519.109 46.3042L530.183 53.7507L543.439 62.6462L553.245 68.6382L557.602 70.6374L560.688 71.5444L563.412 71.3619L567.225 68.4585L568.859 65.1901L574.672 58.2883L583.567 49.0278L594.1 37.2262L601.726 27.2385L606.266 20.1569L608.08 14.5299L609.17 7.8106L610.079 0.274159" stroke="#14A0FF" stroke-width="0.584008" stroke-miterlimit="10"/>
<path d="M213.239 434.656L221.683 435.609L227.266 436.835L233.395 439.422L240.204 442.69L244.562 444.733L247.149 445.55L250.962 444.869L253.141 443.644L255.184 441.873L256.818 440.103L258.589 436.698L262.129 430.298L267.078 422.173L273.798 413.457L283.965 401.111L295.042 389.309L304.303 380.594L317.014 369.881L324.096 364.434L331.904 359.531L341.709 355.173L353.331 351.543L382.93 343.189L414.524 335.201L436.313 329.391L448.115 324.851L454.652 320.855L459.554 316.315L463.185 311.05L465.909 305.058L469.722 300.518L486.903 284.993L492.418 278.728L494.78 275.46L495.869 272.009L495.869 268.741L494.417 265.472L488.243 260.932L482.068 258.208L475.259 256.392L468.632 256.392L457.011 258.026L445.389 261.294L426.505 268.92L407.257 277.998L399.269 281.629L392.005 283.446L383.107 284.99L369.306 285.807L362.224 287.079L353.146 290.892L344.068 296.522L334.445 299.744L327.364 301.425L319.147 301.607L315.925 302.879L312.294 306.51L306.847 313.727L305.166 316.86L301.944 318.856L294.318 318.674L286.874 319.581L280.337 321.986L274.527 325.208L267.446 330.361C267.446 330.361 263.088 333.199 262.361 333.199C261.634 333.199 253.463 337.557 253.463 337.557L245.109 340.825L240.389 344.638L238.755 348.996L237.483 357.712L236.031 377.505L233.852 386.403L230.946 392.757L226.588 399.294L221.503 404.742L214.239 410.006L205.706 417.27L203.344 421.991L202.617 425.621L202.617 430.162L204.434 432.703L206.975 433.975L213.239 434.656Z" stroke="#14A0FF" stroke-width="0.584008" stroke-miterlimit="10"/>
<path d="M216.415 426.165L226.948 426.165L232.395 427.255L236.026 428.663L240.748 432.157L243.107 433.429L246.74 433.429L250.189 433.429L252.733 431.43L255.274 427.437L259.814 419.991L264.534 411.095L268.71 404.738L275.791 395.66L278.153 390.03L279.969 383.493L281.059 374.598L281.059 359.525L279.425 353.898L276.336 348.995L272.16 346.272L266.531 344.455L257.09 344.455L251.098 345.727L247.285 349.72L245.651 354.988L244.924 361.159L246.196 377.866L245.831 382.404L244.562 388.216L242.745 392.209L239.659 396.75L233.122 403.469L219.866 415.815L214.601 421.445L213.512 423.259L213.512 424.893L216.415 426.165Z" stroke="#14A0FF" stroke-width="0.584008" stroke-miterlimit="10"/>
<path d="M253.822 364.973L258.542 369.331L262.173 372.237L264.534 373.326L266.351 372.419L267.076 369.151L265.806 361.525L263.807 356.439L261.628 354.805L258.905 354.805L255.456 358.074L253.822 360.797L253.822 364.973Z" stroke="#14A0FF" stroke-width="0.584008" stroke-miterlimit="10"/>
<path d="M0.249997 482.455L4.06313 487.085L16.1835 494.439L34.0235 505.333L43.7388 512.415L47.5519 516.046L49.9134 518.952L53.1818 525.489L58.4466 536.021L62.8045 543.647L66.6176 550.546L70.0685 555.811L74.6089 558.717L80.0562 561.259L85.8658 562.166L92.9473 561.438L99.1219 560.166L107.655 556.353L117.823 551.451L127.81 543.462L139.432 532.75L154.685 516.046L162.311 507.147L170.3 499.704L177.743 493.167L187.911 484.996L193.176 480.276L195.355 477.552L196.626 474.284L196.626 470.288L194.63 465.113L189.365 457.942L180.467 449.043L168.3 438.511L152.141 427.616L135.799 417.994L119.457 408.006C119.457 408.006 110.014 402.376 109.469 401.831C108.924 401.287 102.932 399.108 102.932 399.108L96.578 398.201L89.6789 398.201L81.5079 400.742L73.8816 405.1L60.4458 412.908L46.1002 418.538L34.4783 422.534L19.7705 427.074L10.1478 430.705L3.97325 434.336L0.249995 437.604" stroke="#14A0FF" stroke-width="0.584008" stroke-miterlimit="10"/>
<path d="M18.1319 465.114L27.0302 472.83L35.0187 477.371L47.0028 483.001L58.2598 488.448L67.5202 493.895L74.964 499.705L83.8622 507.876L94.9394 518.408L102.566 524.4L108.013 526.762L112.733 526.762L118.363 525.128C118.363 525.128 123.083 522.221 123.083 521.677C123.083 521.132 128.53 515.867 128.53 515.867L143.056 503.7L154.133 494.078L169.203 481.004L176.102 473.378L178.098 469.927L179.005 466.659L179.005 463.752L177.371 460.666L173.92 458.125L168.835 455.402L160.302 449.592L149.225 441.239L135.969 431.978L125.074 425.079L114.907 419.449L107.643 416.908L101.288 415.456L96.5681 415.456L86.5805 416.728L77.1375 419.634L60.0683 425.444L39.1859 433.615L23.7509 440.697L16.1709 445.961L12.8562 449.957L11.9492 453.043L11.9492 457.401L13.9457 460.307L18.121 465.12L18.1319 465.114Z" stroke="#14A0FF" stroke-width="0.584008" stroke-miterlimit="10"/>
<path d="M65.5239 457.577L72.6054 460.483L85.1343 465.113L93.4878 469.381L102.204 473.012L107.651 475.191L113.46 475.191L121.814 474.464L128.713 473.194L134.705 470.288L139.245 465.113L139.973 461.39L138.883 457.577L134.705 449.951L127.261 441.78L120.362 435.608L112.916 431.795L105.11 430.34L95.4842 430.34L86.4062 432.519L73.1501 437.604L63.5274 442.324L58.9871 446.503L58.0801 450.133L59.5318 452.767L61.8932 455.036L65.5239 457.577Z" stroke="#14A0FF" stroke-width="0.584008" stroke-miterlimit="10"/>
<path d="M592.826 0.273607L592.826 9.98898L591.919 16.7082L589.558 22.5179L585.017 30.1441L574.85 39.5871L562.683 49.3923C562.683 49.3923 559.415 52.2984 558.508 52.6607C557.601 53.0229 553.788 54.2949 553.788 54.2949L550.519 54.2949L545.254 52.4782L537.99 47.0309L528.368 40.3115L518.38 33.4125L510.026 28.8721L492.595 21.4284L481.155 17.253L471.168 14.7118L458.639 13.4399L444.658 12.5328L430.313 12.5329C430.313 12.5329 420.145 13.4398 419.601 13.6223C419.056 13.8048 411.43 16.8907 411.43 16.8907L404.348 21.4311L393.453 30.6916L387.279 39.5898L380.47 50.7568L372.843 69.2778L365.217 87.5264L361.54 95.0165L358.136 99.5105L355.14 101.689L352.552 101.689L349.42 100.328L347.241 96.6507L345.879 91.8842L344.926 81.9429L344.926 57.2937L347.105 34.8234L350.373 18.0728L355.82 0.27907" stroke="#14A0FF" stroke-width="0.584008" stroke-miterlimit="10"/>
<path d="M369.033 0.273575L366.718 5.40499L364.403 15.074L363.177 25.8325L362.496 36.1824L362.496 43.5364L363.586 45.5791L364.675 45.5791L365.764 44.6258L368.352 41.085L371.893 36.0463L378.974 25.9687L384.285 17.9339L389.597 11.1247L397.495 4.45171L401.989 2.13659L406.211 0.273574" stroke="#14A0FF" stroke-width="0.584008" stroke-miterlimit="10"/>
<path d="M468.877 0.273479L478.524 3.90415L497.318 11.5304L513.796 18.3396C513.796 18.3396 519.924 20.7909 520.741 20.7909C521.558 20.7909 527.278 22.1527 527.278 22.1527L532.453 24.8764L539.398 31.4132L545.526 35.2263L549.34 37.4053L553.97 37.4053L559.689 34.6816L563.503 31.1408L567.86 23.2422L574.125 10.9857L578.755 1.72521L579.845 0.273474" stroke="#14A0FF" stroke-width="0.584008" stroke-miterlimit="10"/>
<path d="M0.25 418.994L11.9618 416.177L28.1213 413.819L38.4712 411.457L46.4598 408.734L59.3536 403.104L75.3306 393.664L89.8587 385.493L96.5753 382.949L101.66 380.952L116.006 379.5L131.258 377.501L139.974 375.322L152.503 370.42L161.764 366.427L171.569 360.98L182.826 352.444L192.631 343.548L207.156 329.02L221.502 317.946L234.031 309.41L243.291 304.145L252.007 299.741L260.45 297.246L266.17 295.611L269.983 293.068L274.886 287.803L278.154 281.811L281.06 275.819L282.512 268.555L283.239 258.749L282.15 242.59L283.239 233.147L285.236 224.976L287.597 217.532L292.679 208.999L298.854 200.283L305.165 192.474L309.204 186.12L314.106 176.86L319.145 164.875L324.094 152.891L328.632 137.639L331.72 122.748L333.423 110.037L334.444 94.6047L335.169 41.9453L336.078 29.2367L337.892 17.7973L339.709 6.5376L341.343 0.273158" stroke="#14A0FF" stroke-width="0.584008" stroke-miterlimit="10"/>
<path d="M0.25 401.017L14.9578 400.336L31.8446 398.838L39.3346 396.659L47.6418 393.663L56.7661 388.897L65.7542 383.449L79.5088 375.142L90.5396 368.333L99.0266 364.384L105.792 361.932L112.193 360.707L127.718 359.89L136.161 359.073L141.881 357.847L149.235 355.396L157.814 350.629L168.028 343.684L177.969 335.377L189.273 325.299L201.257 312.362L213.513 299.74L219.642 294.794L228.493 289.641L237.754 285.806L249.193 281.312L254.641 278.588L257.909 275.865L260.45 272.46L262.948 267.421L264.582 260.067L265.399 250.671L266.352 219.757L267.17 213.629L269.485 207.092L273.162 201.508L279.154 194.972L289.367 184.758L294.815 177.676L299.717 169.641L304.075 161.334L308.297 151.12L312.382 140.771L315.242 130.012L317.285 119.526L319.145 108.223L320.009 97.0557L320.009 84.2544L319.145 54.1579L318.375 41.4928L318.102 34.4113L318.375 24.8785L319.145 16.9798L320.009 10.5792L321.507 6.62987L324.503 0.272808" stroke="#14A0FF" stroke-width="0.584008" stroke-miterlimit="10"/>
<path d="M0.25 389.851L11.9618 388.897L19.1795 387.944L25.3078 386.174L30.0742 383.995L36.8833 378.684L44.2373 371.602C44.2373 371.602 49.1399 367.653 49.0037 367.244C48.8675 366.836 52.6806 364.384 52.6806 364.384L58.0817 363.295L69.295 362.478L73.9252 361.524L78.1469 359.345L84.9561 354.307L92.31 349.54L98.4383 345.319L104.567 342.323C104.567 342.323 112.601 339.599 112.193 339.599C111.784 339.599 118.321 338.373 118.321 338.373L134.799 337.011L141.472 335.922L146.102 334.288L152.231 331.019L158.631 326.253L166.258 319.444L175.382 308.958L180.148 302.693L185.187 294.931L191.315 285.262L197.171 276.682L204.117 269.601L212.832 263.336L222.501 257.616L232.851 253.122L241.022 250.126L244.427 248.22L247.287 245.769L249.057 240.73L250.01 232.831L250.01 216.761L248.921 203.143L248.376 194.836L248.512 190.342L250.01 186.393L256.411 179.856L274.932 163.514L284.465 153.436L291.546 143.631L297.811 133.009L301.352 123.612L304.348 113.671L306.118 104.819L306.799 94.6049L306.799 75.6754L305.165 59.7419L303.122 48.3025L301.896 40.2677L301.76 33.7309L302.032 25.5599L303.258 12.3501L305.165 0.276073" stroke="#14A0FF" stroke-width="0.584008" stroke-miterlimit="10"/>
<path d="M0.25 365.064L7.74009 363.43L14.9578 361.115L21.4946 357.574L26.6696 353.489L33.2064 347.769L38.5175 343.82L41.9221 342.322L46.5524 340.551L56.0852 339.462L70.2483 338.509L74.6061 337.419L78.2831 335.921L81.9601 333.606L89.314 329.112L95.4885 326.388L102.66 324.073L111.648 321.213L125.403 317.673L136.57 314.677L141.881 312.225L147.056 308.412L153.524 302.556L160.402 295.066L167.075 285.806L174.156 276L181.51 266.74L189.273 258.569L195.809 253.258L202.619 249.853L211.334 246.857L221.003 242.772L226.859 239.095L230.128 235.282L232.17 231.605L233.124 226.838L233.124 220.71L231.626 214.309L229.991 204.913L230.945 194.427L233.805 185.439L237.618 176.859L241.431 170.595L245.38 165.283L253.006 157.249L262.267 147.988L274.523 137.366L282.831 128.786L287.188 122.93L290.321 116.53L293.317 105.363L294.134 98.2811L294.134 90.791L293.453 81.5305L291.546 67.9122C291.546 67.9122 289.231 51.9787 289.231 51.5702C289.231 51.1616 287.461 40.6755 287.461 40.6755L286.508 31.0065L285.963 18.3414L285.827 0.275324" stroke="#14A0FF" stroke-width="0.584008" stroke-miterlimit="10"/>
<path d="M0.25 345.863L3.65459 344.774L9.64666 342.323L16.7282 338.237L22.4479 333.471L27.6229 329.113L31.436 326.389L39.1985 323.121L45.8714 320.533L57.447 316.72L69.886 313.724L77.6948 311.771L84.0491 308.865L87.8622 305.959L93.3096 303.962L102.932 300.694L120.364 296.154L129.442 292.703L135.796 290.706L139.427 288.165L145.419 281.446L153.522 270.369L162.374 255.478L168.842 246.945C168.842 246.945 178.465 237.685 178.465 236.957C178.465 236.23 188.27 229.514 188.27 229.514L196.624 222.794L200.619 219.708L203.526 216.44L205.704 210.63L207.883 200.643L211.152 186.662L213.513 178.853L217.871 171.227L226.404 159.243L240.385 143.99L251.462 132.733L255.82 127.648L259.816 121.294L264.173 112.396L266.897 102.773L268.169 90.9715C268.169 90.9715 268.531 78.6251 268.169 78.0804C267.807 77.5356 266.897 52.4779 266.897 52.4779L265.99 18.1597L264.356 0.27329" stroke="#14A0FF" stroke-width="0.584008" stroke-miterlimit="10"/>
<path d="M0.25 315.946L9.05562 310.137L19.2231 304.145L27.0318 299.74L39.923 295.067L53.9063 291.071L73.8789 285.624L102.932 277.997L113.827 274.729L119.274 271.278L124.539 266.196L129.08 259.294L131.983 253.122L134.29 245.313L138.158 237.325L142.878 231.333L154.682 218.984L172.838 203.731L183.37 193.564L190.452 185.393L194.448 178.856L200.075 168.144L205.705 155.432L214.238 142.541L229.128 123.293L236.937 114.033L241.112 108.768L244.018 102.593L245.108 94.7844L245.108 77.7179L245.108 64.6443L246.015 56.4733L246.015 45.5786L245.108 30.1436L242.564 14.5288L239.478 0.273098" stroke="#14A0FF" stroke-width="0.584008" stroke-miterlimit="10"/>
<path d="M0.249999 243.318L5.06272 247.494L10.8723 252.759L16.1372 258.568L20.8573 262.381L24.1257 264.743L26.5307 265.514L31.5695 265.514L36.1997 263.471L40.6938 261.428L44.6431 259.658L52.4055 258.432L59.8956 257.615L63.9811 256.389L68.0666 254.415L71.335 250.806L76.2376 244.95L80.7317 239.639L87.9494 232.966L95.0309 227.655L99.525 224.25L101.976 221.663L104.155 217.986L107.696 211.313L113.143 197.422L116.82 189.659L120.77 182.668L124.31 179.037L130.847 174.407L137.929 170.73L153.522 164.738L167.481 158.111L178.511 150.983L187.227 143.766L197.849 133.552L202.48 127.56L205.067 121.568L206.701 116.801L207.518 110.128L206.838 102.23L205.612 98.5528C205.612 98.5528 203.569 95.9653 203.024 95.6929C202.48 95.4206 197.577 94.6035 197.577 94.6035L189.951 95.4206L182.325 98.4166L168.57 103.864C168.57 103.864 163.123 106.451 162.374 106.588C161.625 106.724 157.812 106.996 157.812 106.996L154.815 105.634L153.522 101.957L154.815 96.1015L155.496 91.4712L155.36 86.7048L154.679 83.4364L152.092 80.9851L149.232 79.7595L145.419 79.7595L141.061 80.7128L137.248 83.3002L134.287 86.5686L132.209 86.9772L129.758 85.6154L127.306 83.0279L124.174 77.9891L123.131 74.3121L123.131 65.5964L124.038 60.1491L124.583 55.2465L123.766 51.4333L121.042 46.9393C121.042 46.9393 118.046 43.3985 117.637 43.3985C117.229 43.3985 114.097 41.6281 113.688 41.6281L108.649 41.6281C108.241 41.6281 102.793 43.9432 102.793 43.9432L96.3928 48.1649L85.0895 56.7445L74.1949 66.2773L62.8916 75.1292L59.6232 77.0358L54.4483 77.3082C54.4483 77.3082 51.8608 78.1253 51.4522 78.1253C51.0437 78.1253 47.7753 80.0318 47.7753 80.0318L42.8727 84.3897L34.8379 92.4245L30.48 95.6929L27.8925 96.6462L24.8965 96.6462L20.9471 95.1482L17.4064 94.8758L13.7294 95.9653L9.91629 98.8252L0.249993 108.361" stroke="#14A0FF" stroke-width="0.584008" stroke-miterlimit="10"/>
<path d="M0.249175 223.98L3.10903 224.933L6.78598 226.635L11.28 229.767L14.7527 232.9L23.4004 243.454L25.375 245.905L27.3497 247.403L30.0733 248.493L33.9546 248.493L39.8105 247.948L43.2831 247.267L46.5515 245.905L53.3607 242.16L58.1271 238.96L67.2514 232.241L72.3365 228.427L77.1492 225.431L81.8693 222.435L85.5 219.712L89.0408 215.988L93.0364 210.359L96.7596 203.732L103.887 191.838L109.289 181.76L113.284 175.223L116.098 171.228L119.549 168.232L122.455 166.597L127.72 164.508L135.163 162.419L142.517 160.695L148.419 158.699L153.14 156.52L157.86 153.57L163.579 149.076L169.754 143.539L176.835 135.006L181.376 128.741L183.737 125.563L184.464 122.839L184.01 120.478L182.013 118.843L177.293 117.936L168.94 118.843L157.045 121.295C157.045 121.295 149.509 121.929 149.237 121.929C148.964 121.929 144.606 121.839 144.606 121.839L141.7 120.567L141.066 118.571L140.883 113.396L140.701 108.403L140.156 105.225L138.432 102.591L135.798 100.685C135.798 100.685 132.892 99.9574 132.619 99.9574C132.347 99.9574 126.445 100.32 126.445 100.32L123.539 101.227L120.633 101.499L118.271 100.864L115.73 98.9578L113.913 95.5069L111.372 86.6087L109.828 77.6206L108.011 70.539L105.56 66.3637L103.471 64.912C103.471 64.912 100.112 64.3672 99.8401 64.3672C99.5677 64.3672 97.3888 64.912 97.1164 64.912C96.8441 64.912 93.5757 67.5457 93.5757 67.5457L86.8564 71.9036L78.413 76.8062L72.8758 79.8921C72.8758 79.8921 67.3386 83.9776 66.7012 84.1601C66.0666 84.3426 60.2543 89.79 60.2543 89.79L55.6241 95.2373L48.6324 103.498C48.6324 103.498 46.0912 106.132 45.6364 106.312C45.1815 106.494 40.2789 108.673 39.7342 108.853C39.1895 109.035 33.3799 109.76 33.3799 109.76C33.3799 109.76 24.4816 110.939 23.9369 110.759C23.3922 110.577 15.5834 112.211 15.0387 112.394C14.494 112.576 9.40887 116.207 9.40887 116.207L4.50626 121.837L0.238276 127.829" stroke="#14A0FF" stroke-width="0.584008" stroke-miterlimit="10"/>
<path d="M0.249999 214.855L7.33154 215.808L13.3236 217.17L18.09 219.485L23.265 223.843L29.8018 229.971L32.7978 231.469L36.4748 232.559L40.9688 232.559L44.782 231.605L49.8208 229.154L57.3109 224.66L65.4819 219.349L72.972 212.131L78.8278 203.688L84.6837 193.065L90.1311 182.669L93.808 175.498L97.6212 170.595L103.205 165.284L111.24 160.109L119.002 156.432L128.399 151.257L135.208 147.308L137.251 145.265L137.931 142.678L137.931 140.635L136.433 137.503L131.939 133.962L127.718 130.149L124.585 126.063L123.134 120.616L121.317 116.258L118.866 114.079C118.866 114.079 115.87 112.853 115.053 112.581C114.236 112.309 106.745 111.492 106.745 111.492L103.068 110.674L99.9363 108.632L98.3021 105.499L97.2126 99.7797L96.1231 94.1962L94.6251 91.6087L92.3563 90.1107L88.633 90.1107L84.2752 92.0173L77.3298 96.6475L67.3884 103.048C67.3884 103.048 58.4003 111.355 57.9918 111.492C57.5832 111.628 47.9142 119.935 47.9142 119.935L40.4241 125.382C40.4241 125.382 37.0195 127.697 36.3386 127.697C35.6577 127.697 31.1636 128.787 31.1636 128.787C31.1636 128.787 24.8992 128.923 24.4906 128.923C24.0821 128.923 19.4519 130.285 18.9071 130.285C18.3624 130.285 14.4131 133.281 14.4131 133.281L7.33153 138.728L0.249996 146.218" stroke="#14A0FF" stroke-width="0.584008" stroke-miterlimit="10"/>
<path d="M0.25 195.062L4.60787 199.467L8.96574 202.054L12.2341 202.871L18.09 202.871L23.9459 201.373L29.8018 198.968L32.934 196.334L39.7432 187.755L45.1905 177.813L47.0971 171.957L47.0971 166.238L45.8715 161.335L43.4201 158.884L38.9261 158.113L30.7551 158.113C30.7551 158.113 25.4439 159.156 25.0354 159.156C24.6268 159.156 17.5453 162.833 17.5453 162.833L7.6039 168.689L2.02038 173.069L0.249999 175.226" stroke="#14A0FF" stroke-width="0.584008" stroke-miterlimit="10"/>
<path d="M93.8757 144.789L97.6207 147.376L101.23 148.466L105.928 148.466L109.333 147.581L111.716 145.674L113.622 141.725L113.622 137.98L112.465 135.665L109.605 133.418L105.928 132.669L102.319 133.009L99.6635 134.167L96.1227 136.89L93.8757 139.546L93.0586 141.452L93.0586 142.746L93.8757 144.789Z" stroke="#14A0FF" stroke-width="0.584008" stroke-miterlimit="10"/>
<path d="M0.25 85.8896L11.8256 84.8002L19.9966 84.1193L23.6735 83.0298L28.1676 80.987L33.0702 76.9015L39.1985 70.2286L42.8754 67.0963L47.0971 64.3727L56.9023 60.2872L62.622 57.5635L69.0907 53.7504L76.7851 47.7583L83.3219 40.8129L90.9482 32.6419L97.2126 26.5137L101.707 24.0624L106.337 22.292L111.376 22.292L118.457 23.6538L126.22 27.1946L134.29 32.9143L138.612 38.3616L140.247 41.63L141.064 45.8517L140.247 50.8905L139.702 54.0908L140.247 55.7931L142.153 56.8826L145.422 57.5635L154.818 58.5168L159.312 59.6062L161.764 62.1937L163.398 65.4621L164.487 70.0924L165.849 77.3101L166.53 79.2167L168.437 80.8509L170.795 81.9403L200.712 82.2127L216.918 81.5318L219.914 80.5785L222.501 78.6719L225.634 74.314L226.587 69.82L226.587 59.6062L225.225 25.6966L223.591 13.5762L220.186 0.273828" stroke="#14A0FF" stroke-width="0.584008" stroke-miterlimit="10"/>
<path d="M0.25 57.5642L15.7749 55.7475L25.3976 53.751L32.1169 50.8449L42.1019 43.0825L54.8133 30.8722L71.3377 15.4372L78.964 9.26261L84.2289 5.632L89.1315 3.81527L96.7577 2.18107L106.018 2.18107L123.131 3.0908L131.076 4.18026L138.702 6.3592L145.239 11.0793L151.231 16.8889L155.951 25.2424L160.309 33.2309L165.032 40.1327L172.113 48.3037L183.733 57.5642L189.362 59.9228L192.993 59.9228L196.626 57.9264L198.805 54.658L200.44 46.6695L201.529 26.6941L201.529 10.7171L199.895 0.274496" stroke="#14A0FF" stroke-width="0.584008" stroke-miterlimit="10"/>
<path d="M0.25 31.9609L6.6942 26.1486L13.231 18.1601L20.8573 7.81019L27.5766 0.273749" stroke="#14A0FF" stroke-width="0.584008" stroke-miterlimit="10"/>
<path d="M390.006 323.394L401.99 321.985L415.472 321.078L431.406 321.078L435.627 320.125L439.44 317.946L450.063 307.732L463.272 294.931L471.852 284.99L476.482 277.908L477.708 275.185L477.708 272.052L475.937 269.193L471.58 267.558L459.187 268.512L450.471 270.282L441.755 274.912L429.363 283.628L420.102 289.075L408.254 293.025L395.317 299.741L388.235 304.873L385.103 309.911L384.014 314.542L384.014 318.082L385.512 320.534L390.006 323.394Z" stroke="#14A0FF" stroke-width="0.584008" stroke-miterlimit="10"/>
</svg>
