<svg width="748" height="102" viewBox="0 0 748 102" fill="none" xmlns="http://www.w3.org/2000/svg">
<path d="M85.5615 0.5H662.438C670.265 0.5 677.701 3.91994 682.795 9.8623C697.165 26.6273 715.562 39.4637 736.257 47.1641L746.565 51L736.257 54.8359C715.562 62.5363 697.165 75.3727 682.795 92.1377C677.701 98.0801 670.265 101.5 662.438 101.5H85.5615C77.7348 101.5 70.2987 98.0801 65.2051 92.1377C50.8351 75.3727 32.4378 62.5363 11.7432 54.8359L1.43359 51L11.7432 47.1641C32.4378 39.4637 50.8351 26.6273 65.2051 9.8623C70.2987 3.91994 77.7348 0.5 85.5615 0.5Z" fill="url(#paint0_linear_328_20302)" fill-opacity="1" stroke="white"/>
<defs>
<linearGradient id="paint0_linear_328_20302" x1="374" y1="0" x2="374" y2="102" gradientUnits="userSpaceOnUse">
<stop stop-color="#301663"/>
<stop offset="1" stop-color="#1B073A"/>
</linearGradient>
</defs>
</svg>
