<svg xmlns="http://www.w3.org/2000/svg" width="316" height="35" viewBox="0 0 316 35" fill="none">
<path d="M43.8037 0.5H272.196C275.873 0.500056 279.462 1.62444 282.482 3.72168C291.281 9.83186 301.116 14.2945 311.509 16.8926L313.938 17.5L311.509 18.1074C301.116 20.7055 291.281 25.1681 282.482 31.2783C279.462 33.3756 275.873 34.4999 272.196 34.5H43.8037C40.1269 34.4999 36.5376 33.3756 33.5176 31.2783C24.7188 25.1681 14.8836 20.7055 4.49121 18.1074L2.06152 17.5L4.49121 16.8926C14.8836 14.2945 24.7188 9.83185 33.5176 3.72168C36.3491 1.75538 39.681 0.643772 43.1162 0.512695L43.8037 0.5Z" fill="#14A0FF" fill-opacity="0.9" stroke="white"/>
</svg>